<svg width="328" height="176" viewBox="0 0 328 176" fill="none" xmlns="http://www.w3.org/2000/svg">
<path d="M327.988 -50.6346V88.683L304.354 88.6104C268.68 88.6104 244.237 86.5052 222.417 100.31C201.842 113.328 187.843 140.417 187.843 176H127.81C127.81 148.245 119.989 126.25 102.931 108.646C84.5927 89.7114 67.2574 88.4531 14.4536 88.4531L-13 88.6588V-50.6346L14.3569 -50.5378C56.1478 -50.2474 73.4468 -50.1265 93.7922 -62.4551C115.274 -75.0863 127.725 -107.245 127.725 -138H187.855C187.855 -102.188 202.168 -73.0053 227.313 -58.8134C246.074 -49.1465 266.069 -49.582 296.327 -50.2595L328 -50.6467L327.988 -50.6346ZM289.195 49.5434V-11.6039C219.793 -7.93796 175.657 -33.043 157.742 -86.3019C139.476 -32.5832 96.1374 -8.09525 25.805 -11.616V49.6039C95.9077 45.9259 140.286 71.1277 157.971 124.592C178.075 67.6795 223.722 45.2362 289.195 49.5434Z" fill="url(#paint0_linear_113_1752)"/>
<defs>
<linearGradient id="paint0_linear_113_1752" x1="327.988" y1="19.0061" x2="-13" y2="19.0061" gradientUnits="userSpaceOnUse">
<stop stop-color="#FFCE6C"/>
<stop offset="1" stop-color="#E95441"/>
</linearGradient>
</defs>
</svg>
