<svg width="146" height="97" viewBox="0 0 146 97" fill="none" xmlns="http://www.w3.org/2000/svg">
<path d="M118.504 0V21.1157C100.522 21.1157 87.4738 26.4193 79.3584 37.4203C69.9819 50.1344 71.2299 62.0215 71.2299 83.4129L71.3476 97H5.16336L5.31364 81.9753C5.31364 54.4599 4.95426 44.1416 -6.25177 33.3113C-14.6612 25.1853 -26.8604 21.3061 -42 21.3061V0.223227C-28.5397 0.223227 -6.38246 3.09161 8.07757 17.6173C24.7461 34.3616 26.053 50.8826 26.1183 75.9301H50.3926C50.2815 53.9348 51.2551 42.5466 59.0634 29.5109C67.8779 14.7292 86.3499 0 118.504 0Z" fill="url(#paint0_linear_113_2097)"/>
<path d="M146 10.7125C146 16.5215 141.295 21.2473 135.519 21.2473C129.737 21.2473 125.032 16.5215 125.032 10.7125C125.032 4.90353 129.737 0.177556 135.519 0.177556C141.295 0.177556 146 4.90353 146 10.7125Z" fill="#FFCE6C"/>
<defs>
<linearGradient id="paint0_linear_113_2097" x1="146.145" y1="9.67505" x2="-40.2751" y2="46.3449" gradientUnits="userSpaceOnUse">
<stop stop-color="#FFCE6C"/>
<stop offset="0.880208" stop-color="#FFCE6C" stop-opacity="0"/>
</linearGradient>
</defs>
</svg>
