<svg width="291" height="164" viewBox="0 0 291 164" fill="none" xmlns="http://www.w3.org/2000/svg">
<path d="M244.345 0V35.7008C213.833 35.7008 191.692 44.6678 177.922 63.2673C162.012 84.7633 164.13 104.861 164.13 141.028L164.329 164H52.0272L52.2822 138.598C52.2822 92.0765 51.6724 74.6312 32.6579 56.3202C18.3887 42.5814 -2.31103 36.0227 -28 36.0227L-28 0.377415C-5.16043 0.377415 32.4361 5.22706 56.972 29.786C85.2554 58.0959 87.4728 86.0283 87.5837 128.377H128.773C128.584 91.1887 130.236 71.9344 143.485 49.8947C158.442 24.9029 189.785 0 244.345 0Z" fill="url(#paint0_linear_113_1515)"/>
<path d="M291 18.1119C291 27.9332 283.017 35.9233 273.216 35.9233C263.404 35.9233 255.421 27.9332 255.421 18.1119C255.421 8.29051 263.404 0.300198 273.216 0.300198C283.017 0.300198 291 8.29051 291 18.1119Z" fill="#FFCE6C"/>
<defs>
<linearGradient id="paint0_linear_113_1515" x1="291.247" y1="16.3578" x2="-24.9883" y2="78.7868" gradientUnits="userSpaceOnUse">
<stop stop-color="#FFCE6C"/>
<stop offset="0.880208" stop-color="#FFCE6C" stop-opacity="0"/>
</linearGradient>
</defs>
</svg>
