<svg width="66" height="150" viewBox="0 0 66 150" fill="none" xmlns="http://www.w3.org/2000/svg">
<path d="M65.9942 41.7351V108.288L54.6973 108.253C37.6449 108.253 25.9608 107.248 15.5306 113.842C5.69555 120.061 -0.995956 133.002 -0.995956 150H-29.692C-29.692 136.741 -33.4307 126.234 -41.5842 117.825C-50.3501 108.779 -58.6365 108.178 -83.877 108.178L-97 108.277V41.7351L-83.9232 41.7813C-63.947 41.92 -55.6779 41.9778 -45.9527 36.0883C-35.6843 30.0543 -29.7324 14.6919 -29.7324 0L-0.990173 0C-0.990173 17.1078 5.85157 31.0484 17.8709 37.828C26.8391 42.446 36.3967 42.2379 50.8603 41.9142L66 41.7293L65.9942 41.7351ZM47.451 89.5908V60.3803C14.2766 62.1315 -6.82069 50.1387 -15.3844 24.6966C-24.1157 50.3583 -44.8317 62.0564 -78.451 60.3745V89.6197C-44.9415 87.8627 -23.7286 99.9017 -15.2746 125.442C-5.66498 98.2545 16.1546 87.5332 47.451 89.5908Z" fill="url(#paint0_linear_113_2093)"/>
<defs>
<linearGradient id="paint0_linear_113_2093" x1="65.9942" y1="75.0029" x2="-97" y2="75.0029" gradientUnits="userSpaceOnUse">
<stop stop-color="#FFCE6C"/>
<stop offset="1" stop-color="#E95441"/>
</linearGradient>
</defs>
</svg>
