<svg width="140" height="83" viewBox="0 0 140 83" fill="none" xmlns="http://www.w3.org/2000/svg">
<path d="M139.229 79.3881C139.443 79.2138 139.475 78.8989 139.301 78.6847L136.46 75.1947C136.286 74.9805 135.971 74.9482 135.757 75.1225C135.542 75.2968 135.51 75.6118 135.684 75.8259L138.21 78.9282L135.107 81.4533C134.893 81.6276 134.861 81.9425 135.035 82.1567C135.209 82.3708 135.524 82.4032 135.739 82.2288L139.229 79.3881ZM13.4134 0.500214C7.73668 0.50028 3.89324 3.06618 1.9601 7.21084C0.04632 11.314 0.0388477 16.8874 1.80847 22.8916C5.35161 34.9133 16.081 48.8982 33.705 56.9549L34.1207 56.0454C16.7448 48.1021 6.22432 34.3371 2.76767 22.6089C1.0374 16.7382 1.09254 11.4366 2.86637 7.63354C4.62085 3.87193 8.09003 1.50028 13.4134 1.50021L13.4134 0.500214ZM33.705 56.9549C68.7956 72.9965 119.388 77.5004 138.862 79.4977L138.964 78.5029C119.438 76.5002 69.0299 72.004 34.1207 56.0454L33.705 56.9549Z" fill="#6BD1C5"/>
</svg>
