<svg width="192" height="118" viewBox="0 0 192 118" fill="none" xmlns="http://www.w3.org/2000/svg">
<path d="M30.6964 40.1784L30.6078 39.6863L30.6964 40.1784ZM191.218 1.18033C191.494 1.19217 191.708 1.42542 191.696 1.70131L191.503 6.19717C191.492 6.47305 191.258 6.68711 190.982 6.67528C190.706 6.66344 190.492 6.43019 190.504 6.15431L190.676 2.15798L186.679 1.98653C186.403 1.9747 186.189 1.74145 186.201 1.46557C186.213 1.18968 186.446 0.975615 186.722 0.987451L191.218 1.18033ZM37.8956 117.487C13.182 112.192 1.01187 94.6325 0.212935 77.4197C-0.585496 60.2177 9.98813 43.3955 30.6078 39.6863L30.7849 40.6705C10.7086 44.282 0.43426 60.6202 1.21186 77.3733C1.98895 94.1155 13.8189 111.306 38.1051 116.509L37.8956 117.487ZM30.6078 39.6863C46.5644 36.816 61.2601 36.0283 75.1462 35.6959C89.0448 35.3631 102.098 35.4861 114.837 34.4424C140.266 32.3591 164.359 25.6308 190.859 1.31149L191.535 2.04826C164.839 26.5481 140.52 33.3416 114.918 35.4391C102.141 36.4859 89.0234 36.3639 75.1701 36.6956C61.3044 37.0275 46.6675 37.8135 30.7849 40.6705L30.6078 39.6863Z" fill="#6BD1C5"/>
</svg>
