<svg width="227" height="71" viewBox="0 0 227 71" fill="none" xmlns="http://www.w3.org/2000/svg">
<path d="M0.682153 4.88836C0.468437 4.7135 0.436935 4.39849 0.611802 4.18477L3.46138 0.701968C3.63625 0.488248 3.95125 0.456739 4.16498 0.63161C4.3787 0.806469 4.4102 1.12148 4.23533 1.3352L1.70237 4.43102L4.7982 6.96399C5.01191 7.13885 5.04342 7.45387 4.86855 7.66758C4.69368 7.8813 4.37868 7.91281 4.16495 7.73794L0.682153 4.88836ZM226.561 12.495C220.219 13.2702 215.574 16.4874 211.63 21.0944C207.67 25.7199 204.447 31.7081 200.937 37.997C193.941 50.5296 185.858 64.162 168.647 69.4765L168.352 68.521C185.142 63.3364 193.059 50.0578 200.064 37.5096C203.553 31.2582 206.83 25.1636 210.87 20.4441C214.926 15.7062 219.782 12.3162 226.439 11.5024L226.561 12.495ZM168.647 69.4765C164.287 70.8228 158.938 70.7315 152.884 69.5895C146.824 68.4464 140.017 66.2426 132.72 63.3223C118.127 57.4824 101.51 48.7506 84.8876 39.8151C68.2537 30.8733 51.6163 21.7281 36.9476 15.0339C29.6146 11.6874 22.7871 8.95988 16.7097 7.17835C10.6257 5.39484 5.33028 4.57074 1.04853 4.99891L0.949021 4.00386C5.41729 3.55705 10.8563 4.42038 16.9911 6.21873C23.1325 8.01905 30.0082 10.7678 37.3628 14.1241C52.0693 20.8356 68.7447 30.0019 85.361 38.9343C101.989 47.8731 118.559 56.578 133.092 62.3939C140.357 65.3015 147.097 67.4804 153.069 68.6068C159.046 69.7344 164.212 69.7994 168.352 68.521L168.647 69.4765Z" fill="#FFCE6C"/>
</svg>
