<svg width="658" height="552" viewBox="0 0 658 552" fill="none" xmlns="http://www.w3.org/2000/svg">
<path d="M661.364 551.2H629.251C629.251 496.8 600.676 474.89 541.996 478.64C529.433 526.79 498.589 551.2 450.304 551.2L285.78 551.24C226.64 551.24 189.91 509.43 189.91 442.12V341.87C189.91 300.15 164.773 273.19 125.873 273.19C72.9307 273.19 48.4534 265.78 25.1155 242.7C-2.2702 216.89 0.0486335 177.95 0.0486335 139H32.1519C32.1519 175.8 32.3417 204.27 47.0541 219.53C60.4471 233.65 87.8229 241.12 126.203 241.12C154.188 241.12 178.176 250.83 195.577 269.19C212.848 287.41 221.983 312.39 221.983 341.42V443.29C221.983 491.51 244.851 519.17 284.72 519.17L449.974 519.13C487.525 519.13 514.001 492.76 514.001 446.95H567.553C613.419 446.95 661.364 477.36 661.364 551.2Z" fill="url(#paint0_linear_139_748)"/>
<path d="M0.0486335 139H32.1519V0H0.0486335V139Z" fill="url(#paint1_linear_139_748)"/>
<defs>
<linearGradient id="paint0_linear_139_748" x1="34.482" y1="4.92801e-06" x2="508.529" y2="575.258" gradientUnits="userSpaceOnUse">
<stop offset="0.0431091" stop-color="#6BD1C5" stop-opacity="0.04"/>
<stop offset="0.338893" stop-color="#6BD1C5"/>
<stop offset="0.728369" stop-color="#6BD1C5"/>
<stop offset="1" stop-color="#6BD1C5" stop-opacity="0"/>
</linearGradient>
<linearGradient id="paint1_linear_139_748" x1="34.482" y1="4.92801e-06" x2="508.529" y2="575.258" gradientUnits="userSpaceOnUse">
<stop offset="0.0431091" stop-color="#6BD1C5" stop-opacity="0.04"/>
<stop offset="0.338893" stop-color="#6BD1C5"/>
<stop offset="0.728369" stop-color="#6BD1C5"/>
<stop offset="1" stop-color="#6BD1C5" stop-opacity="0"/>
</linearGradient>
</defs>
</svg>
