<svg width="518" height="599" viewBox="0 0 518 599" fill="none" xmlns="http://www.w3.org/2000/svg">
<path d="M0.164062 0.754933L0.356715 34.7549C44.8 34.4295 62.6318 50.2549 61.1318 117.755C21.8698 128.312 1.13877 156.273 1.42777 195.741L2.38028 305.255C2.38028 356.755 34.6318 407.934 92.1016 407.934L173.995 407.334C208.632 406.255 241.132 424.755 245.132 464.255C245.132 508.255 246.632 558.255 289.132 583.255C319.132 600.902 485.311 598.488 517.132 598.255L517.132 566.755C481.132 566.755 333.632 581.255 297.632 549.255C278.647 532.38 276.862 490.627 276.632 459.255C274.632 433.755 260.632 411.255 244.132 397.255C229.143 383.247 197.887 375.081 174.17 375.255L92.1016 375.864C50.6318 375.255 34.8705 337.844 34.6318 305.255L33.6754 195.818C33.4507 165.125 54.7068 142.029 92.1323 141.755L92.1323 98.2549C92.1323 37.2549 60.4811 0.313263 0.164062 0.754933Z" fill="url(#paint0_linear_139_751)"/>
<defs>
<linearGradient id="paint0_linear_139_751" x1="361.702" y1="543.223" x2="77.1562" y2="15.8113" gradientUnits="userSpaceOnUse">
<stop offset="0.09375" stop-color="#E95441"/>
<stop offset="0.85349" stop-color="#FFCE6C"/>
<stop offset="0.94361" stop-color="#FFCE6C" stop-opacity="0"/>
</linearGradient>
</defs>
</svg>
