<svg width="285" height="177" viewBox="0 0 285 177" fill="none" xmlns="http://www.w3.org/2000/svg">
<path d="M0.00025251 81.23L0.000259456 1.76999L32.1002 1.77L32.0702 80.81C32.0702 104.5 45.8702 144.6 97.5702 144.6L188.61 144.89C193.93 144.89 212.56 144.01 228.41 132.75C244.32 121.45 252.39 103.49 252.39 79.39L252.59 33.57C217.58 33.57 206.6 31.74 192.84 38.56C169.28 49.89 156.62 72.24 156.56 105.55L124.44 105.55C123.91 55.34 148.3 19.02 189 5.81002C205.45 0.220021 214.68 0.600009 252.19 1.00001L284.99 1.21002L284.5 79.98C284.5 137.07 245.24 176.96 189.03 176.96L97.0002 176.71C65.5002 176.71 39.6402 165.71 22.2402 144.92C8.11024 128.03 0.000250447 104.82 0.00025251 81.23Z" fill="url(#paint0_linear_139_752)"/>
<defs>
<linearGradient id="paint0_linear_139_752" x1="122.5" y1="103.001" x2="121" y2="255.501" gradientUnits="userSpaceOnUse">
<stop stop-color="#FFCE6C"/>
<stop offset="1" stop-color="#FFCE6C" stop-opacity="0"/>
</linearGradient>
</defs>
</svg>
