<svg width="64" height="56" viewBox="0 0 64 56" fill="none" xmlns="http://www.w3.org/2000/svg">
<path d="M0.00261066 10.45C-0.0255563 10.7247 0.1743 10.9702 0.449002 10.9984L4.92553 11.4574C5.20023 11.4855 5.44576 11.2857 5.47392 11.011C5.50209 10.7363 5.30223 10.4908 5.02753 10.4626L1.0484 10.0546L1.4564 6.07545C1.48457 5.80075 1.28471 5.55522 1.01001 5.52706C0.735309 5.49889 0.489785 5.69875 0.461618 5.97345L0.00261066 10.45ZM63.5001 56.0002C63.5001 28.8801 55.5716 16.766 49.8784 10.1742L49.1216 10.8278C54.6578 17.2379 62.5001 29.1199 62.5001 56.0001L63.5001 56.0002ZM49.8784 10.1742C46.9837 6.82253 39.9958 2.39691 31.0337 1.00616C22.0425 -0.389099 11.0513 1.2675 0.184356 10.1132L0.815649 10.8888C11.4487 2.23348 22.1502 0.63959 30.8803 1.99433C39.6395 3.35358 46.4016 7.67845 49.1216 10.8278L49.8784 10.1742Z" fill="#E95441"/>
</svg>
