<svg width="65" height="69" viewBox="0 0 65 69" fill="none" xmlns="http://www.w3.org/2000/svg">
<path d="M64.8533 64.6466C65.0485 64.8418 65.0485 65.1584 64.8533 65.3537L61.6713 68.5357C61.476 68.7309 61.1595 68.7309 60.9642 68.5357C60.7689 68.3404 60.7689 68.0238 60.9642 67.8286L63.7926 65.0001L60.9642 62.1717C60.7689 61.9764 60.7689 61.6599 60.9642 61.4646C61.1595 61.2693 61.476 61.2693 61.6713 61.4646L64.8533 64.6466ZM32.9994 1.00003C16.7209 1.00003 7.02551 9.98281 3.15637 20.4855C-0.732058 31.0405 1.27998 43.0468 8.32641 49.1214L7.67347 49.8788C0.220349 43.4536 -1.76807 30.9599 2.21802 20.1398C6.22339 9.26736 16.2775 2.5712e-05 32.9994 2.71077e-05L32.9994 1.00003ZM8.32641 49.1214C15.4827 55.2907 26.0109 59.1431 36.5439 61.4491C47.0654 63.7527 57.529 64.5001 64.4997 64.5001L64.4997 65.5001C57.47 65.5001 46.9334 64.7475 36.33 62.426C25.7381 60.107 15.0168 56.2094 7.67347 49.8788L8.32641 49.1214Z" fill="#FFCE6C"/>
</svg>
