<svg width="648" height="303" viewBox="0 0 648 303" fill="none" xmlns="http://www.w3.org/2000/svg">
<path d="M295 230.498L294.666 230.87L295 230.498ZM0.146501 3.64678C-0.048761 3.84204 -0.048761 4.15862 0.146501 4.35388L3.32848 7.53586C3.52374 7.73113 3.84032 7.73113 4.03559 7.53587C4.23085 7.3406 4.23085 7.02402 4.03559 6.82876L1.20716 4.00033L4.03559 1.1719C4.23085 0.976642 4.23085 0.660059 4.03559 0.464797C3.84033 0.269536 3.52375 0.269535 3.32848 0.464797L0.146501 3.64678ZM646.76 270.06C610.69 289.802 550.026 304.242 484.761 301.522C419.503 298.802 349.709 278.93 295.334 230.126L294.666 230.87C349.261 279.872 419.302 299.795 484.719 302.521C550.128 305.247 610.98 290.784 647.24 270.937L646.76 270.06ZM295.334 230.126C253.865 192.905 195.949 136.245 140.574 88.9329C112.88 65.2712 85.7968 43.9258 61.6902 28.4934C49.6367 20.7771 38.3175 14.5327 28.0305 10.2161C17.7482 5.90148 8.46779 3.50033 0.500054 3.50033L0.500055 4.50033C8.28149 4.50033 17.4224 6.84923 27.6435 11.1382C37.86 15.4252 49.1265 21.6378 61.151 29.3356C85.2005 44.7315 112.243 66.0424 139.924 89.6932C195.3 137.006 253.136 193.595 294.666 230.87L295.334 230.126Z" fill="#E95441"/>
</svg>
