<svg width="148" height="288" viewBox="0 0 148 288" fill="none" xmlns="http://www.w3.org/2000/svg">
<path d="M0 245.64H32.1532C32.1532 218.12 40.2291 198.15 56.9803 185.73C76.3402 171.38 94.4409 173.29 127.014 173.29L147.703 173.47V72.18L124.825 72.41C82.9267 72.41 67.215 71.86 50.7236 54.71C38.35 41.84 32.4431 23.17 32.4431 0H0.339911C0.339911 20.6 4.70764 54.51 26.8261 76.64C52.3228 102.15 77.4796 104.15 115.62 104.25V141.4C82.1272 141.23 64.7862 142.72 44.9366 154.67C22.4283 168.16 0 196.43 0 245.64Z" fill="url(#paint0_linear_139_1004)"/>
<path d="M16.311 287.719C25.1564 287.719 32.3524 280.519 32.3524 271.679C32.3524 262.829 25.1564 255.629 16.311 255.629C7.46559 255.629 0.269287 262.829 0.269287 271.679C0.269287 280.519 7.46559 287.719 16.311 287.719Z" fill="#6BD1C5"/>
<defs>
<linearGradient id="paint0_linear_139_1004" x1="14.7323" y1="245.83" x2="56.2527" y2="-0.162884" gradientUnits="userSpaceOnUse">
<stop stop-color="#6BD1C5"/>
<stop offset="1" stop-color="#6BD1C5" stop-opacity="0"/>
</linearGradient>
</defs>
</svg>
