<svg width="292" height="443" viewBox="0 0 292 443" fill="none" xmlns="http://www.w3.org/2000/svg">
<path d="M0.819336 442.5V183.57C0.819336 126.23 40.4196 87.71 99.3589 87.71H128.214V172.43C154.23 172.31 182.865 170.65 202.905 161.05C223.554 151.15 233.169 134.08 233.169 107.33V30.02C233.169 11.74 244.393 1.46 265.092 0C271.419 8.17 280.504 13.44 291.499 16.7V27.69C281.794 26.78 272.818 23.38 265.222 17.48V107.66C265.222 135.8 256.627 158.11 239.666 173.97C210.541 201.2 159.528 208.01 95.8707 203.02V120.1C56.3513 121.41 32.8827 145.06 32.8827 183.92V442.5C32.8827 442.5 29.7145 442.5 0.819336 442.5Z" fill="url(#paint0_linear_139_1003)"/>
<defs>
<linearGradient id="paint0_linear_139_1003" x1="145.744" y1="1.72235e-06" x2="21.1893" y2="424.965" gradientUnits="userSpaceOnUse">
<stop stop-color="#5167B7"/>
<stop offset="1" stop-color="white" stop-opacity="0.04"/>
</linearGradient>
</defs>
</svg>
