<svg width="165" height="54" viewBox="0 0 165 54" fill="none" xmlns="http://www.w3.org/2000/svg">
<path d="M7.50012 38.0011L7.13942 38.3473L7.50012 38.0011ZM162.895 53.489C163.165 53.5473 163.431 53.3757 163.49 53.1058L164.44 48.7073C164.498 48.4373 164.326 48.1713 164.057 48.113C163.787 48.0547 163.521 48.2262 163.462 48.4961L162.618 52.406L158.708 51.5615C158.438 51.5032 158.172 51.6747 158.114 51.9446C158.055 52.2145 158.227 52.4806 158.497 52.5389L162.895 53.489ZM101 -0.000443245C81.0228 -0.000473149 50.0947 1.55768 27.8991 7.03954C22.3471 8.41078 17.3276 10.0308 13.1561 11.9401C8.9901 13.8469 5.63634 16.0572 3.45016 18.6264C1.25095 21.2109 0.232515 24.1631 0.768391 27.4919C1.30017 30.7954 3.3518 34.4017 7.13942 38.3473L7.86082 37.6548C4.14456 33.7835 2.24221 30.3553 1.75568 27.333C1.27325 24.3361 2.17217 21.6714 4.21175 19.2745C6.26436 16.8622 9.47083 14.7266 13.5723 12.8494C17.6682 10.9746 22.6233 9.3726 28.1389 8.01037C50.2137 2.55834 81.0435 0.999528 101 0.999558L101 -0.000443245ZM7.13942 38.3473C10.2324 41.5694 14.6346 43.5869 19.9604 44.7533C25.2872 45.92 31.5768 46.2438 38.4907 46.0479C52.3116 45.6563 68.7403 43.1819 85.125 41.1219C101.535 39.0589 117.907 37.4102 131.698 38.6391C145.499 39.8688 156.582 43.968 162.581 53.2712L163.421 52.7293C157.169 43.0325 145.69 38.8818 131.787 37.643C117.875 36.4034 101.404 38.0675 85.0003 40.1298C68.5724 42.1951 52.2197 44.6585 38.4624 45.0483C31.5871 45.2431 25.3885 44.9185 20.1743 43.7765C14.9592 42.6343 10.7677 40.683 7.86082 37.6548L7.13942 38.3473Z" fill="#6BD1C5"/>
</svg>
