<svg width="160" height="55" viewBox="0 0 160 55" fill="none" xmlns="http://www.w3.org/2000/svg">
<path fill-rule="evenodd" clip-rule="evenodd" d="M27.608 16.3886L27.702 13.4535C31.0852 13.5274 33.9583 12.0901 36.0393 9.31625C41.6848 11.3379 44.3364 15.0453 44.3364 19.3841V54.3023C39.3554 52.8784 35.999 48.8621 35.999 44.3487V13.8028C33.5488 15.5625 30.7697 16.4692 27.608 16.3953V16.3886ZM38.7849 0.699219C37.053 0.699219 35.6499 2.10292 35.6499 3.83574C35.6499 5.56855 37.053 6.97226 38.7849 6.97226C40.5168 6.97226 41.9198 5.56855 41.9198 3.83574C41.9198 2.10292 40.5168 0.699219 38.7849 0.699219Z" fill="#F2977A"/>
<path fill-rule="evenodd" clip-rule="evenodd" d="M30.0608 19.3763V46.7252C25.0799 45.3013 21.7234 41.2849 21.7234 36.7716V13.8689C19.3874 15.736 16.4606 16.2129 12.7953 15.8367V12.8346C17.2527 13.5062 19.6223 12.3442 21.475 9.32189C26.8722 10.8263 30.0608 14.8897 30.0608 19.3897V19.3763ZM24.516 0.691406C22.7841 0.691406 21.3811 2.09511 21.3811 3.82792C21.3811 5.56074 22.7841 6.96444 24.516 6.96444C26.2479 6.96444 27.6509 5.56074 27.6509 3.82792C27.6509 2.09511 26.2479 0.691406 24.516 0.691406Z" fill="#EF8062"/>
<path fill-rule="evenodd" clip-rule="evenodd" d="M15.6541 19.3763V37.8395C10.6732 36.4156 7.31681 32.3992 7.31681 27.8859V13.9495C5.28953 15.5278 2.89304 16.4345 0.30188 16.683V13.7614C3.31595 13.3584 5.59832 11.7801 7.31681 9.31516C12.6871 11.1017 15.6139 15.0107 15.6541 19.383V19.3763ZM10.1093 0.691406C8.37742 0.691406 6.97445 2.09511 6.97445 3.82792C6.97445 5.56074 8.37742 6.96444 10.1093 6.96444C11.8412 6.96444 13.2442 5.56074 13.2442 3.82792C13.2442 2.09511 11.8412 0.691406 10.1093 0.691406Z" fill="#E95441"/>
<path d="M64.0271 38.1824H61.5299L60.966 39.7473H60.1537L62.4294 33.7832H63.1209L65.4032 39.7473H64.5976L64.0271 38.1824ZM61.7648 37.5376H63.7921L62.7785 34.7503L61.7648 37.5376Z" fill="white"/>
<path d="M70.0966 37.2427L71.4661 33.7771H72.379L70.2711 38.7472C70.1302 39.0629 69.9959 39.2912 69.8751 39.4188C69.7543 39.5531 69.6066 39.6539 69.4455 39.7211C69.2777 39.7882 69.0696 39.8218 68.8279 39.8218C68.6131 39.8218 68.4721 39.8084 68.4117 39.7882L68.4386 39.1636L68.8145 39.177C69.1031 39.177 69.3112 39.036 69.4522 38.7606L69.5529 38.5457L69.7073 38.183L67.6733 33.7637H68.5527L70.0966 37.2293V37.2427Z" fill="white"/>
<path d="M79.3584 34.4221H77.4385V39.7481H76.6531V34.4221H74.7399V33.7773H79.3516V34.4221H79.3584Z" fill="white"/>
<path d="M86.3669 37.8539C86.2931 38.4852 86.0581 38.9755 85.6688 39.318C85.2794 39.6605 84.7558 39.8351 84.1047 39.8351C83.3998 39.8351 82.836 39.5799 82.4131 39.0762C81.9901 38.5725 81.7753 37.8941 81.7753 37.0479V36.4703C81.7753 35.9128 81.876 35.4292 82.0707 35.0061C82.2721 34.583 82.5473 34.2606 82.9098 34.0389C83.2723 33.8106 83.6952 33.7031 84.1718 33.7031C84.8028 33.7031 85.313 33.8778 85.6956 34.2337C86.0783 34.5897 86.2998 35.08 86.3602 35.7046H85.5681C85.501 35.2278 85.3533 34.8852 85.125 34.6703C84.8968 34.4554 84.5746 34.3479 84.1718 34.3479C83.6684 34.3479 83.2723 34.536 82.9904 34.9054C82.7084 35.2748 82.5607 35.8054 82.5607 36.4904V37.068C82.5607 37.7128 82.695 38.2299 82.9635 38.6128C83.232 38.9956 83.6147 39.1904 84.098 39.1904C84.5343 39.1904 84.87 39.0897 85.1049 38.8949C85.3399 38.6934 85.4943 38.3508 85.5681 37.8605H86.3602L86.3669 37.8539Z" fill="white"/>
<path d="M93.8731 36.9539C93.8731 37.5382 93.7724 38.0486 93.5777 38.4852C93.383 38.9218 93.1011 39.2509 92.7453 39.4859C92.3828 39.7143 91.9666 39.8285 91.4833 39.8285C91 39.8285 90.5972 39.7143 90.2347 39.4792C89.8722 39.2508 89.5903 38.9217 89.3889 38.4919C89.1875 38.062 89.0868 37.5718 89.0801 37.0076V36.5777C89.0801 36.0068 89.1808 35.4964 89.3822 35.0598C89.5835 34.6233 89.8655 34.2807 90.228 34.0524C90.5905 33.824 91.0067 33.7031 91.4766 33.7031C91.9465 33.7031 92.3761 33.8173 92.7386 34.0524C93.1011 34.2807 93.383 34.6166 93.5777 35.0598C93.7724 35.5031 93.8731 36.0069 93.8731 36.5912V36.9673V36.9539ZM93.0876 36.571C93.0876 35.8658 92.9467 35.3218 92.6647 34.9389C92.3828 34.5628 91.98 34.3681 91.4698 34.3681C90.9597 34.3681 90.5838 34.5561 90.2951 34.9389C90.0132 35.3151 89.8655 35.8389 89.852 36.5173V36.9539C89.852 37.6389 89.993 38.1762 90.2817 38.5725C90.5703 38.962 90.9664 39.1635 91.4698 39.1635C91.9733 39.1635 92.3694 38.9755 92.6513 38.6061C92.9265 38.2367 93.0742 37.7061 93.0809 37.0143V36.571H93.0876Z" fill="white"/>
<path d="M97.6856 37.41V39.7473H96.9002V33.7832H99.102C99.7532 33.7832 100.263 33.9511 100.639 34.2802C101.008 34.616 101.196 35.0526 101.196 35.6033C101.196 36.1809 101.015 36.6309 100.653 36.9398C100.29 37.2555 99.7733 37.41 99.0953 37.41H97.6924H97.6856ZM97.6856 36.7652H99.0953C99.5182 36.7652 99.8404 36.6645 100.062 36.4697C100.283 36.2682 100.398 35.9861 100.398 35.61C100.398 35.2339 100.283 34.972 100.062 34.757C99.8404 34.5421 99.5317 34.4347 99.1423 34.4279H97.6856V36.7719V36.7652Z" fill="white"/>
<path d="M108.418 37.8539C108.344 38.4852 108.109 38.9755 107.72 39.318C107.33 39.6605 106.807 39.8351 106.156 39.8351C105.451 39.8351 104.887 39.5799 104.464 39.0762C104.041 38.5725 103.826 37.8941 103.826 37.0479V36.4703C103.826 35.9128 103.927 35.4292 104.122 35.0061C104.323 34.583 104.598 34.2606 104.961 34.0389C105.323 33.8106 105.746 33.7031 106.223 33.7031C106.854 33.7031 107.364 33.8778 107.747 34.2337C108.129 34.5897 108.351 35.08 108.411 35.7046H107.619C107.552 35.2278 107.404 34.8852 107.176 34.6703C106.948 34.4554 106.626 34.3479 106.223 34.3479C105.719 34.3479 105.323 34.536 105.041 34.9054C104.759 35.2748 104.612 35.8054 104.612 36.4904V37.068C104.612 37.7128 104.746 38.2299 105.014 38.6128C105.283 38.9956 105.666 39.1904 106.149 39.1904C106.585 39.1904 106.921 39.0897 107.156 38.8949C107.391 38.6934 107.545 38.3508 107.619 37.8605H108.411L108.418 37.8539Z" fill="white"/>
<path d="M115.099 33.7773H115.884V39.7415H115.099V35.1407L112.165 39.7415H111.373V33.7773H112.165V38.378L115.099 33.7773Z" fill="white"/>
<path d="M123.751 39.7473H122.959V36.9869H119.951V39.7473H119.166V33.7832H119.951V36.3488H122.959V33.7832H123.751V39.7473Z" fill="white"/>
<path d="M130.69 34.4212H127.817V39.7473H127.025V33.7832H130.69V34.4279V34.4212Z" fill="white"/>
<path d="M137.815 36.9539C137.815 37.5382 137.714 38.0486 137.52 38.4852C137.325 38.9218 137.043 39.2509 136.687 39.4859C136.325 39.7143 135.909 39.8285 135.425 39.8285C134.942 39.8285 134.539 39.7143 134.177 39.4792C133.814 39.2508 133.532 38.9217 133.331 38.4919C133.129 38.062 133.029 37.5718 133.022 37.0076V36.5777C133.022 36.0068 133.123 35.4964 133.324 35.0598C133.525 34.6233 133.807 34.2807 134.17 34.0524C134.532 33.824 134.949 33.7031 135.418 33.7031C135.888 33.7031 136.318 33.8173 136.68 34.0524C137.043 34.2807 137.325 34.6166 137.52 35.0598C137.714 35.5031 137.815 36.0069 137.815 36.5912V36.9673V36.9539ZM137.03 36.571C137.03 35.8658 136.889 35.3218 136.607 34.9389C136.325 34.5628 135.922 34.3681 135.412 34.3681C134.902 34.3681 134.526 34.5561 134.237 34.9389C133.955 35.3151 133.807 35.8389 133.794 36.5173V36.9539C133.794 37.6389 133.935 38.1762 134.224 38.5725C134.512 38.962 134.908 39.1635 135.412 39.1635C135.915 39.1635 136.311 38.9755 136.593 38.6061C136.868 38.2367 137.016 37.7061 137.023 37.0143V36.571H137.03Z" fill="white"/>
<path d="M140.842 39.7473V33.7832H142.789C143.433 33.7832 143.923 33.9175 144.252 34.1862C144.581 34.4548 144.742 34.8511 144.742 35.375C144.742 35.6503 144.662 35.8988 144.507 36.1138C144.346 36.3287 144.131 36.4966 143.863 36.6108C144.185 36.6981 144.44 36.8727 144.628 37.1279C144.816 37.3831 144.91 37.6854 144.91 38.0279C144.91 38.5652 144.736 38.9816 144.387 39.2906C144.037 39.5995 143.547 39.7473 142.916 39.7473H140.849H140.842ZM141.628 36.3287H142.816C143.158 36.3287 143.433 36.2414 143.641 36.0667C143.85 35.8921 143.95 35.657 143.95 35.3615C143.95 35.0324 143.856 34.7906 143.662 34.6429C143.474 34.4951 143.178 34.4212 142.789 34.4212H141.628V36.322V36.3287ZM141.628 36.96V39.1093H142.923C143.292 39.1093 143.574 39.0152 143.789 38.8271C144.004 38.6391 144.105 38.3772 144.105 38.0413C144.105 37.3227 143.715 36.9667 142.93 36.9667H141.621L141.628 36.96Z" fill="white"/>
<path d="M151.208 38.1824H148.711L148.147 39.7473H147.335L149.611 33.7832H150.302L152.584 39.7473H151.779L151.208 38.1824ZM148.946 37.5376H150.973L149.96 34.7503L148.946 37.5376Z" fill="white"/>
<path d="M158.352 39.7484V37.4246H156.976L155.74 39.7484H154.901L156.284 37.2096C155.512 36.9074 155.129 36.3634 155.129 35.5843C155.129 35.0134 155.317 34.5768 155.687 34.2612C156.063 33.9455 156.579 33.791 157.244 33.791H159.144V39.7551H158.352V39.7484ZM155.922 35.5776C155.922 35.9403 156.036 36.2291 156.257 36.4507C156.485 36.6723 156.794 36.7798 157.197 36.7798H158.352V34.4224H157.231C156.808 34.4224 156.479 34.5231 156.251 34.7246C156.022 34.9261 155.915 35.2082 155.915 35.5776H155.922Z" fill="white"/>
<path d="M62.281 49.9347H61.556V52.6145H60.7706V46.6504H61.556V49.2832H62.1669L64.2546 46.6504H65.2346L62.959 49.5451L65.4025 52.6212H64.4425L62.281 49.9414V49.9347Z" fill="white"/>
<path d="M72.4311 49.823C72.4311 50.4073 72.3304 50.9177 72.1357 51.3543C71.9411 51.7909 71.6591 52.12 71.3033 52.355C70.9409 52.5834 70.5247 52.6976 70.0413 52.6976C69.558 52.6976 69.1552 52.5834 68.7927 52.3483C68.4302 52.1199 68.1483 51.7909 67.9469 51.361C67.7455 50.9312 67.6448 50.4409 67.6381 49.8767V49.4468C67.6381 48.8759 67.7388 48.3655 67.9402 47.929C68.1416 47.4924 68.4235 47.1499 68.786 46.9215C69.1485 46.6865 69.5647 46.5723 70.0346 46.5723C70.5045 46.5723 70.9341 46.6865 71.2966 46.9215C71.6591 47.1499 71.9411 47.4857 72.1357 47.929C72.3304 48.3655 72.4311 48.876 72.4311 49.4603V49.8364V49.823ZM71.6457 49.4402C71.6457 48.7349 71.5047 48.1909 71.2228 47.808C70.9408 47.4319 70.5381 47.2372 70.0279 47.2372C69.5177 47.2372 69.1418 47.4252 68.8531 47.808C68.5712 48.1842 68.4235 48.7148 68.4101 49.3864V49.823C68.4101 50.508 68.5511 51.0453 68.8397 51.4416C69.1284 51.8312 69.5244 52.0327 70.0279 52.0327C70.5314 52.0327 70.9274 51.8446 71.2094 51.4752C71.4846 51.1058 71.6323 50.5752 71.639 49.8834V49.4402H71.6457Z" fill="white"/>
<path d="M76.4708 46.6465L78.4175 51.5158L80.3642 46.6465H81.3846V52.6106H80.5992V50.2867L80.673 47.7815L78.7129 52.6106H78.1087L76.1553 47.7883L76.2358 50.2867V52.6106H75.4504V46.6465H76.4641H76.4708Z" fill="white"/>
<path d="M89.1822 52.6145H88.39V47.2885H85.4498V52.6145H84.6644V46.6504H89.1822V52.6145Z" fill="white"/>
<path d="M95.7449 51.0496H93.2477L92.6839 52.6145H91.8716L94.1472 46.6504H94.8387L97.121 52.6145H96.3155L95.7449 51.0496ZM93.4827 50.4048H95.51L94.4963 47.6175L93.4827 50.4048Z" fill="white"/>
<path d="M104.359 52.6145H103.567V49.8541H100.559V52.6145H99.7737V46.6504H100.559V49.216H103.567V46.6504H104.359V52.6145Z" fill="white"/>
<path d="M111.359 46.6465H112.144V52.6106H111.359V48.0099L108.425 52.6106H107.633V46.6465H108.425V51.2472L111.359 46.6465Z" fill="white"/>
<path d="M118.544 52.6175V50.2937H117.168L115.933 52.6175H115.094L116.477 50.0787C115.705 49.7765 115.322 49.2325 115.322 48.4534C115.322 47.8825 115.51 47.446 115.879 47.1303C116.255 46.8146 116.772 46.6602 117.437 46.6602H119.336V52.6243H118.544V52.6175ZM116.114 48.4467C116.114 48.8094 116.228 49.0982 116.45 49.3198C116.678 49.5414 116.987 49.6489 117.39 49.6489H118.544V47.2915H117.423C117 47.2915 116.671 47.3922 116.443 47.5937C116.215 47.7952 116.108 48.0773 116.108 48.4467H116.114Z" fill="white"/>
<path d="M70.1276 21.8703C69.8457 22.4748 69.4832 22.8241 68.8186 22.8241C68.1541 22.8241 67.7983 22.4815 67.4962 21.8703L63.9048 14.3816V24.0464C63.9048 24.6778 63.8914 24.8793 63.7168 25.2084C63.5289 25.5509 63.1328 25.7927 62.6227 25.7927C62.1125 25.7927 61.7165 25.5576 61.5285 25.2084C61.3472 24.8725 61.3405 24.6711 61.3405 24.0464V10.2511C61.3405 9.83465 61.4009 9.38467 61.7232 9.04885C61.9984 8.77348 62.3407 8.66602 62.6629 8.66602C62.9583 8.66602 63.2201 8.7399 63.3879 8.83392C63.5893 8.95482 63.8511 9.27722 64.0189 9.60632L68.8186 19.4054L73.5982 9.60632C73.766 9.2705 74.0278 8.95482 74.2292 8.83392C74.397 8.7399 74.6588 8.66602 74.9542 8.66602C75.2764 8.66602 75.6187 8.77348 75.894 9.04885C76.2162 9.38467 76.2766 9.83465 76.2766 10.2511V24.0464C76.2766 24.6778 76.2631 24.8793 76.0886 25.2084C75.9007 25.5509 75.5046 25.7927 74.9945 25.7927C74.4843 25.7927 74.0882 25.5576 73.9003 25.2084C73.719 24.8725 73.7123 24.6711 73.7123 24.0464V14.3816L70.1343 21.8703H70.1276Z" fill="white"/>
<path d="M86.3768 25.2084C86.1889 25.5509 85.7928 25.7927 85.2826 25.7927C84.7724 25.7927 84.3831 25.5576 84.1884 25.2084C84.0072 24.8725 84.0005 24.6711 84.0005 24.0464V10.419C84.0005 9.78763 84.0139 9.58615 84.1884 9.25033C84.3764 8.9078 84.7724 8.66602 85.2826 8.66602C85.7928 8.66602 86.1889 8.90108 86.3768 9.25033C86.5581 9.58615 86.5648 9.78763 86.5648 10.419V24.0464C86.5648 24.6778 86.5514 24.8793 86.3768 25.2084Z" fill="white"/>
<path d="M103.075 21.8703C102.793 22.4748 102.431 22.8241 101.766 22.8241C101.102 22.8241 100.746 22.4815 100.444 21.8703L96.8524 14.3816V24.0464C96.8524 24.6778 96.839 24.8793 96.6644 25.2084C96.4765 25.5509 96.0804 25.7927 95.5702 25.7927C95.06 25.7927 94.664 25.5576 94.476 25.2084C94.2948 24.8725 94.2881 24.6711 94.2881 24.0464V10.2511C94.2881 9.83465 94.3485 9.38467 94.6707 9.04885C94.9459 8.77348 95.2883 8.66602 95.6105 8.66602C95.9059 8.66602 96.1677 8.7399 96.3355 8.83392C96.5369 8.95482 96.7987 9.27722 96.9665 9.60632L101.766 19.4054L106.546 9.60632C106.714 9.2705 106.975 8.95482 107.177 8.83392C107.345 8.7399 107.606 8.66602 107.902 8.66602C108.224 8.66602 108.566 8.77348 108.842 9.04885C109.164 9.38467 109.224 9.83465 109.224 10.2511V24.0464C109.224 24.6778 109.211 24.8793 109.036 25.2084C108.848 25.5509 108.452 25.7927 107.942 25.7927C107.432 25.7927 107.036 25.5576 106.848 25.2084C106.667 24.8725 106.66 24.6711 106.66 24.0464V14.3816L103.082 21.8703H103.075Z" fill="white"/>
<path d="M119.321 25.2084C119.133 25.5509 118.737 25.7927 118.226 25.7927C117.716 25.7927 117.32 25.5576 117.132 25.2084C116.951 24.8725 116.944 24.6711 116.944 24.0464V10.419C116.944 9.78763 116.958 9.58615 117.132 9.25033C117.32 8.9078 117.716 8.66602 118.226 8.66602C118.737 8.66602 119.133 8.90108 119.321 9.25033C119.502 9.58615 119.509 9.78763 119.509 10.419V24.0464C119.509 24.6778 119.495 24.8793 119.321 25.2084Z" fill="white"/>
<path d="M129.804 24.0464C129.804 24.6778 129.791 24.8793 129.616 25.2084C129.428 25.5509 129.032 25.7927 128.522 25.7927C128.012 25.7927 127.616 25.5576 127.428 25.2084C127.246 24.8725 127.24 24.6711 127.24 24.0464V10.3115C127.24 9.75407 127.32 9.35779 127.609 9.0757C127.871 8.81377 128.193 8.67274 128.582 8.67274C129.186 8.67274 129.569 9.04213 130.079 9.80108L137.423 20.6547V10.419C137.423 9.78763 137.437 9.58615 137.611 9.25033C137.799 8.9078 138.195 8.66602 138.705 8.66602C139.215 8.66602 139.611 8.90108 139.799 9.25033C139.981 9.58615 139.987 9.78763 139.987 10.419V24.1673C139.987 24.7248 139.907 25.1076 139.618 25.3897C139.356 25.6517 139.034 25.7927 138.645 25.7927C138.041 25.7927 137.658 25.4233 137.148 24.6643L129.804 13.8107V24.0464Z" fill="white"/>
<path d="M147.116 17.2295C147.116 13.6765 147.176 11.984 148.814 10.3452C149.909 9.25048 151.332 8.61914 153.198 8.61914C155.064 8.61914 156.48 9.25048 157.575 10.3452C159.213 11.984 159.286 13.6765 159.286 17.2295C159.286 20.7824 159.213 22.475 157.575 24.1137C156.48 25.2085 155.057 25.8398 153.198 25.8398C151.338 25.8398 149.909 25.2085 148.814 24.1137C147.176 22.475 147.116 20.7824 147.116 17.2295ZM153.198 23.5563C154.218 23.5563 155.091 23.1533 155.715 22.4884C156.548 21.5951 156.715 20.5877 156.715 17.2295C156.715 13.8713 156.548 12.8504 155.715 11.9639C155.084 11.2989 154.218 10.9027 153.198 10.9027C152.178 10.9027 151.298 11.2922 150.681 11.9639C149.835 12.8571 149.68 13.878 149.68 17.2295C149.68 20.5809 149.835 21.5951 150.681 22.4884C151.298 23.1533 152.164 23.5563 153.198 23.5563Z" fill="white"/>
</svg>
