<svg width="292" height="484" viewBox="0 0 292 484" fill="none" xmlns="http://www.w3.org/2000/svg">
<path d="M0.518433 0V258.93C0.518433 316.27 40.1186 354.79 99.058 354.79H127.913V270.07C153.929 270.19 182.564 271.85 202.604 281.45C223.253 291.35 232.868 308.42 232.868 335.17V412.48C232.868 430.76 244.092 441.04 264.791 442.5C271.118 434.33 280.203 429.06 291.198 425.8V414.81C281.493 415.72 272.517 419.12 264.921 425.02V334.84C264.921 306.7 256.326 284.39 239.365 268.53C210.24 241.3 159.227 234.49 95.5698 239.48V322.4C56.0504 321.09 32.5818 297.44 32.5818 258.58V0C32.5818 0 29.4136 0 0.518433 0Z" fill="url(#paint0_linear_230_8)"/>
<path d="M251.278 483.236C258.934 483.236 265.161 476.904 265.161 469.118C265.161 461.332 258.934 455 251.278 455C243.622 455 237.395 461.332 237.395 469.118C237.395 476.904 243.622 483.236 251.278 483.236Z" fill="#5167B7"/>
<defs>
<linearGradient id="paint0_linear_230_8" x1="145.443" y1="442.5" x2="20.8884" y2="17.535" gradientUnits="userSpaceOnUse">
<stop stop-color="#5167B7"/>
<stop offset="1" stop-color="#5166B6" stop-opacity="0"/>
</linearGradient>
</defs>
</svg>
