<svg width="44" height="169" viewBox="0 0 44 169" fill="none" xmlns="http://www.w3.org/2000/svg">
<path d="M36.5009 110.5L36.962 110.693L36.5009 110.5ZM1.56408 168.496C1.29018 168.531 1.03968 168.338 1.00457 168.064L0.432396 163.6C0.397286 163.326 0.590864 163.076 0.864764 163.041C1.13866 163.006 1.38917 163.199 1.42428 163.473L1.93288 167.441L5.90041 166.932C6.17431 166.897 6.42482 167.09 6.45993 167.364C6.49504 167.638 6.30146 167.889 6.02756 167.924L1.56408 168.496ZM10.0008 0.50004C18.7243 0.500074 25.6032 5.48912 30.7833 13.3513C35.9584 21.2059 39.4784 31.9794 41.5076 43.71C45.5642 67.1607 43.6949 94.639 36.962 110.693L36.0398 110.307C42.6766 94.4814 44.5578 67.2097 40.5222 43.8804C38.5053 32.2209 35.0184 21.5969 29.9482 13.9015C24.8829 6.21359 18.2778 1.50008 10.0008 1.50005L10.0008 0.50004ZM36.962 110.693C23.9324 141.762 10.3935 157.31 1.89615 168.306L1.10487 167.694C9.60824 156.69 23.0677 141.239 36.0398 110.307L36.962 110.693Z" fill="#FFCE6C"/>
</svg>
