<svg width="125" height="144" viewBox="0 0 125 144" fill="none" xmlns="http://www.w3.org/2000/svg">
<path d="M16.153 93.4323L16.5594 93.141L16.153 93.4323ZM124.533 139.594C124.711 139.383 124.685 139.067 124.474 138.889L121.036 135.985C120.825 135.807 120.51 135.833 120.332 136.044C120.153 136.255 120.18 136.571 120.391 136.749L123.447 139.33L120.865 142.386C120.687 142.597 120.713 142.912 120.924 143.09C121.135 143.269 121.451 143.242 121.629 143.031L124.533 139.594ZM42.1973 0.908359C21.9595 0.908328 8.2521 14.3017 3.16993 32.5711C-1.90853 50.8272 1.60004 73.9884 15.7466 93.7236L16.5594 93.141C2.57768 73.6358 -0.858805 50.785 4.13334 32.8392C9.12178 14.9067 22.5007 1.90833 42.1973 1.90836L42.1973 0.908359ZM15.7466 93.7236C45.0685 134.629 86.9312 142.903 124.193 139.769L124.109 138.773C87.0577 141.889 45.6054 133.662 16.5594 93.141L15.7466 93.7236Z" fill="#FFCE6C"/>
</svg>
