<svg width="233" height="509" viewBox="0 0 233 509" fill="none" xmlns="http://www.w3.org/2000/svg">
<path d="M49.9675 0H63.6918C62.5544 12.167 58.2546 23.4712 50.8675 32.9872H113.129C142.615 32.9872 171.638 43.1159 192.737 60.785C218.736 82.543 232.473 114.88 232.473 154.27V388.786C232.473 459.074 182.625 508.168 111.267 508.168L1.29852 508.78L1.03609 467.765C0.536118 420.86 0.0610657 376.556 7.0607 355.986C23.5723 305.092 68.9699 274.594 131.717 275.256V315.421C90.0813 315.484 62.1578 331.327 47.996 360.776C39.459 377.995 41.7589 424.487 41.7589 468.253L110.517 468.015C140.653 468.015 163.101 457.924 177.226 438.017C191.3 418.197 192.387 394.913 192.387 388.248L192.337 154.995C192.337 90.3334 142.227 73.0895 112.617 73.0895L69.2414 73.2396C47.0551 73.2521 29.0685 55.258 29.0685 33.0622C40.2679 25.3594 47.4301 14.5054 49.9675 0Z" fill="url(#paint0_linear_152_501)"/>
<defs>
<linearGradient id="paint0_linear_152_501" x1="-290.062" y1="140.992" x2="302.479" y2="573.791" gradientUnits="userSpaceOnUse">
<stop offset="0.45157" stop-color="#E95441" stop-opacity="0"/>
<stop offset="0.613094" stop-color="#FFCE6C" stop-opacity="0.81"/>
<stop offset="0.772515" stop-color="#E95441"/>
</linearGradient>
</defs>
</svg>
