<svg width="121" height="41" viewBox="0 0 121 41" fill="none" xmlns="http://www.w3.org/2000/svg">
<path fill-rule="evenodd" clip-rule="evenodd" d="M20.7734 11.9329L20.8449 9.70152C23.4184 9.75769 25.6039 8.66495 27.1868 6.55609C31.4811 8.09305 33.498 10.9117 33.498 14.2103V40.7573C29.7093 39.6748 27.1562 36.6213 27.1562 33.19V9.96705C25.2924 11.3049 23.1785 11.9942 20.7734 11.938V11.9329ZM29.2752 0.00488281C27.9579 0.00488281 26.8906 1.07207 26.8906 2.38946C26.8906 3.70686 27.9579 4.77404 29.2752 4.77404C30.5926 4.77404 31.6598 3.70686 31.6598 2.38946C31.6598 1.07207 30.5926 0.00488281 29.2752 0.00488281Z" fill="#E95441"/>
<path fill-rule="evenodd" clip-rule="evenodd" d="M22.6331 14.2054V34.9978C18.8443 33.9153 16.2912 30.8618 16.2912 27.4304V10.0183C14.5143 11.4378 12.288 11.8004 9.5 11.5144V9.23199C12.8905 9.74261 14.693 8.85922 16.1023 6.56143C20.2077 7.70522 22.6331 10.7945 22.6331 14.2156V14.2054ZM18.4154 0C17.098 0 16.0308 1.06718 16.0308 2.38458C16.0308 3.70197 17.098 4.76916 18.4154 4.76916C19.7328 4.76916 20.8 3.70197 20.8 2.38458C20.8 1.06718 19.7328 0 18.4154 0Z" fill="#E95441"/>
<path fill-rule="evenodd" clip-rule="evenodd" d="M11.6778 14.2054V28.2423C7.88905 27.1598 5.33597 24.1063 5.33597 20.6749V10.0796C3.7939 11.2796 1.97099 11.9689 0 12.1578V9.93661C2.29268 9.63024 4.02878 8.43029 5.33597 6.55632C9.42091 7.91457 11.6472 10.8864 11.6778 14.2105V14.2054ZM7.46013 0C6.14273 0 5.07555 1.06718 5.07555 2.38458C5.07555 3.70197 6.14273 4.76916 7.46013 4.76916C8.77752 4.76916 9.84471 3.70197 9.84471 2.38458C9.84471 1.06718 8.77752 0 7.46013 0Z" fill="#E95441"/>
<path d="M48.4736 28.5032H46.5741L46.1452 29.693H45.5273L47.2583 25.1587H47.7843L49.5204 29.693H48.9076L48.4736 28.5032ZM46.7528 28.013H48.2949L47.5239 25.894L46.7528 28.013Z" fill="#E95441"/>
<path d="M53.0894 27.7886L54.1311 25.1538H54.8255L53.2222 28.9323C53.115 29.1723 53.0128 29.3459 52.9209 29.443C52.829 29.5451 52.7167 29.6217 52.5941 29.6727C52.4665 29.7238 52.3082 29.7493 52.1244 29.7493C51.961 29.7493 51.8537 29.7391 51.8078 29.7238L51.8282 29.2489L52.1142 29.2591C52.3337 29.2591 52.492 29.1519 52.5992 28.9426L52.6758 28.7792L52.7933 28.5034L51.2461 25.1436H51.915L53.0894 27.7783V27.7886Z" fill="#E95441"/>
<path d="M60.1381 25.6435H58.6777V29.6927H58.0802V25.6435H56.625V25.1533H60.1329V25.6435H60.1381Z" fill="#E95441"/>
<path d="M65.4692 28.2528C65.413 28.7328 65.2343 29.1055 64.9381 29.366C64.642 29.6264 64.2437 29.7591 63.7484 29.7591C63.2122 29.7591 62.7833 29.5651 62.4617 29.1821C62.14 28.7992 61.9766 28.2834 61.9766 27.6401V27.2009C61.9766 26.7771 62.0532 26.4095 62.2012 26.0878C62.3544 25.7661 62.5638 25.521 62.8395 25.3525C63.1152 25.1789 63.4369 25.0972 63.7995 25.0972C64.2795 25.0972 64.6675 25.2299 64.9586 25.5006C65.2496 25.7712 65.4181 26.144 65.4641 26.6188H64.8616C64.8105 26.2563 64.6982 25.9959 64.5245 25.8325C64.3509 25.6691 64.1058 25.5874 63.7995 25.5874C63.4165 25.5874 63.1152 25.7304 62.9008 26.0112C62.6863 26.292 62.574 26.6954 62.574 27.2162V27.6554C62.574 28.1456 62.6761 28.5387 62.8804 28.8298C63.0846 29.1208 63.3757 29.2689 63.7433 29.2689C64.0752 29.2689 64.3305 29.1923 64.5092 29.0443C64.688 28.8911 64.8054 28.6306 64.8616 28.2579H65.4641L65.4692 28.2528Z" fill="#E95441"/>
<path d="M71.1771 27.5686C71.1771 28.0128 71.1005 28.4009 70.9524 28.7328C70.8043 29.0647 70.5899 29.3149 70.3192 29.4936C70.0435 29.6672 69.7269 29.754 69.3593 29.754C68.9916 29.754 68.6852 29.6672 68.4095 29.4885C68.1338 29.3149 67.9193 29.0647 67.7661 28.7379C67.613 28.4111 67.5364 28.0384 67.5312 27.6094V27.2826C67.5312 26.8486 67.6078 26.4605 67.761 26.1286C67.9142 25.7967 68.1287 25.5363 68.4044 25.3627C68.6802 25.1891 68.9967 25.0972 69.3542 25.0972C69.7116 25.0972 70.0384 25.184 70.3141 25.3627C70.5899 25.5363 70.8043 25.7916 70.9524 26.1286C71.1005 26.4656 71.1771 26.8486 71.1771 27.2929V27.5788V27.5686ZM70.5796 27.2775C70.5796 26.7414 70.4724 26.3278 70.2579 26.0367C70.0435 25.7508 69.7371 25.6027 69.3491 25.6027C68.961 25.6027 68.675 25.7457 68.4555 26.0367C68.241 26.3227 68.1287 26.7209 68.1184 27.2367V27.5686C68.1184 28.0894 68.2257 28.4979 68.4452 28.7992C68.6648 29.0953 68.9661 29.2485 69.3491 29.2485C69.732 29.2485 70.0333 29.1055 70.2477 28.8247C70.4571 28.5439 70.5694 28.1405 70.5745 27.6145V27.2775H70.5796Z" fill="#E95441"/>
<path d="M74.074 27.916V29.693H73.4766V25.1587H75.1514C75.6467 25.1587 76.0348 25.2863 76.3207 25.5365C76.6016 25.7919 76.7445 26.1237 76.7445 26.5424C76.7445 26.9816 76.6067 27.3237 76.3309 27.5586C76.0552 27.7986 75.662 27.916 75.1463 27.916H74.0791H74.074ZM74.074 27.4258H75.1463C75.468 27.4258 75.7131 27.3492 75.8816 27.2012C76.0501 27.048 76.1369 26.8335 76.1369 26.5476C76.1369 26.2616 76.0501 26.0625 75.8816 25.8991C75.7131 25.7357 75.4782 25.654 75.182 25.6489H74.074V27.4309V27.4258Z" fill="#E95441"/>
<path d="M82.2426 28.2528C82.1865 28.7328 82.0078 29.1055 81.7116 29.366C81.4155 29.6264 81.0172 29.7591 80.5219 29.7591C79.9857 29.7591 79.5568 29.5651 79.2351 29.1821C78.9134 28.7992 78.75 28.2834 78.75 27.6401V27.2009C78.75 26.7771 78.8266 26.4095 78.9747 26.0878C79.1279 25.7661 79.3372 25.521 79.6129 25.3525C79.8887 25.1789 80.2104 25.0972 80.5729 25.0972C81.0529 25.0972 81.441 25.2299 81.732 25.5006C82.0231 25.7712 82.1916 26.144 82.2375 26.6188H81.635C81.5839 26.2563 81.4716 25.9959 81.298 25.8325C81.1244 25.6691 80.8793 25.5874 80.5729 25.5874C80.1899 25.5874 79.8887 25.7304 79.6742 26.0112C79.4598 26.292 79.3474 26.6954 79.3474 27.2162V27.6554C79.3474 28.1456 79.4496 28.5387 79.6538 28.8298C79.8581 29.1208 80.1491 29.2689 80.5168 29.2689C80.8487 29.2689 81.104 29.1923 81.2827 29.0443C81.4614 28.8911 81.5788 28.6306 81.635 28.2579H82.2375L82.2426 28.2528Z" fill="#E95441"/>
<path d="M87.3222 25.1533H87.9196V29.6876H87.3222V26.1899L85.0908 29.6876H84.4883V25.1533H85.0908V28.651L87.3222 25.1533Z" fill="#E95441"/>
<path d="M93.9016 29.693H93.299V27.5943H91.0115V29.693H90.4141V25.1587H91.0115V27.1092H93.299V25.1587H93.9016V29.693Z" fill="#E95441"/>
<path d="M99.1825 25.6438H96.9971V29.693H96.3945V25.1587H99.1825V25.6489V25.6438Z" fill="#E95441"/>
<path d="M104.599 27.5686C104.599 28.0128 104.522 28.4009 104.374 28.7328C104.226 29.0647 104.012 29.3149 103.741 29.4936C103.465 29.6672 103.149 29.754 102.781 29.754C102.413 29.754 102.107 29.6672 101.831 29.4885C101.556 29.3149 101.341 29.0647 101.188 28.7379C101.035 28.4111 100.958 28.0384 100.953 27.6094V27.2826C100.953 26.8486 101.03 26.4605 101.183 26.1286C101.336 25.7967 101.551 25.5363 101.826 25.3627C102.102 25.1891 102.419 25.0972 102.776 25.0972C103.133 25.0972 103.46 25.184 103.736 25.3627C104.012 25.5363 104.226 25.7916 104.374 26.1286C104.522 26.4656 104.599 26.8486 104.599 27.2929V27.5788V27.5686ZM104.002 27.2775C104.002 26.7414 103.894 26.3278 103.68 26.0367C103.465 25.7508 103.159 25.6027 102.771 25.6027C102.383 25.6027 102.097 25.7457 101.877 26.0367C101.663 26.3227 101.551 26.7209 101.54 27.2367V27.5686C101.54 28.0894 101.648 28.4979 101.867 28.7992C102.087 29.0953 102.388 29.2485 102.771 29.2485C103.154 29.2485 103.455 29.1055 103.67 28.8247C103.879 28.5439 103.991 28.1405 103.996 27.6145V27.2775H104.002Z" fill="#E95441"/>
<path d="M106.902 29.693V25.1587H108.383C108.873 25.1587 109.246 25.2608 109.496 25.465C109.746 25.6693 109.869 25.9706 109.869 26.3689C109.869 26.5782 109.808 26.7671 109.69 26.9305C109.568 27.0939 109.404 27.2216 109.2 27.3084C109.445 27.3748 109.639 27.5075 109.782 27.7016C109.925 27.8956 109.997 28.1254 109.997 28.3858C109.997 28.7943 109.864 29.1109 109.598 29.3457C109.333 29.5806 108.96 29.693 108.48 29.693H106.907H106.902ZM107.5 27.0939H108.404C108.664 27.0939 108.873 27.0275 109.032 26.8948C109.19 26.762 109.267 26.5833 109.267 26.3586C109.267 26.1084 109.195 25.9246 109.047 25.8123C108.904 25.6999 108.679 25.6438 108.383 25.6438H107.5V27.0888V27.0939ZM107.5 27.5739V29.2079H108.485C108.766 29.2079 108.981 29.1364 109.144 28.9934C109.307 28.8504 109.384 28.6513 109.384 28.396C109.384 27.8496 109.088 27.579 108.49 27.579H107.495L107.5 27.5739Z" fill="#E95441"/>
<path d="M114.786 28.5032H112.887L112.458 29.693H111.84L113.571 25.1587H114.097L115.833 29.693H115.22L114.786 28.5032ZM113.065 28.013H114.607L113.836 25.894L113.065 28.013Z" fill="#E95441"/>
<path d="M120.218 29.6928V27.926H119.172L118.232 29.6928H117.594L118.646 27.7626C118.058 27.5329 117.767 27.1193 117.767 26.5269C117.767 26.0929 117.91 25.761 118.191 25.521C118.477 25.281 118.87 25.1636 119.376 25.1636H120.821V29.6979H120.218V29.6928ZM118.37 26.5218C118.37 26.7976 118.457 27.0171 118.625 27.1856C118.799 27.3541 119.034 27.4358 119.34 27.4358H120.218V25.6436H119.366C119.044 25.6436 118.794 25.7202 118.62 25.8733C118.446 26.0265 118.365 26.241 118.365 26.5218H118.37Z" fill="#E95441"/>
<path d="M47.145 37.4388H46.5935V39.4762H45.9961V34.9419H46.5935V36.9435H47.0582L48.6462 34.9419H49.3917L47.6607 37.1427L49.5193 39.4813H48.7892L47.145 37.4439V37.4388Z" fill="#E95441"/>
<path d="M54.8646 37.3522C54.8646 37.7965 54.788 38.1846 54.6399 38.5165C54.4918 38.8484 54.2774 39.0986 54.0067 39.2773C53.731 39.4509 53.4144 39.5377 53.0468 39.5377C52.6791 39.5377 52.3727 39.4509 52.097 39.2722C51.8213 39.0986 51.6068 38.8484 51.4536 38.5216C51.3005 38.1948 51.2239 37.822 51.2188 37.3931V37.0663C51.2188 36.6323 51.2953 36.2442 51.4485 35.9123C51.6017 35.5804 51.8162 35.32 52.0919 35.1464C52.3677 34.9677 52.6842 34.8809 53.0417 34.8809C53.3991 34.8809 53.7259 34.9677 54.0016 35.1464C54.2774 35.32 54.4918 35.5753 54.6399 35.9123C54.788 36.2442 54.8646 36.6323 54.8646 37.0765V37.3625V37.3522ZM54.2671 37.0612C54.2671 36.5251 54.1599 36.1114 53.9454 35.8204C53.731 35.5344 53.4246 35.3864 53.0366 35.3864C52.6485 35.3864 52.3625 35.5293 52.143 35.8204C51.9285 36.1063 51.8162 36.5097 51.806 37.0204V37.3522C51.806 37.8731 51.9132 38.2816 52.1327 38.5828C52.3523 38.879 52.6536 39.0322 53.0366 39.0322C53.4195 39.0322 53.7208 38.8892 53.9352 38.6084C54.1446 38.3275 54.2569 37.9241 54.262 37.3982V37.0612H54.2671Z" fill="#E95441"/>
<path d="M57.9402 34.937L59.421 38.639L60.9018 34.937H61.6779V39.4713H61.0805V37.7046L61.1367 35.8L59.6457 39.4713H59.1861L57.7002 35.8051L57.7615 37.7046V39.4713H57.1641V34.937H57.9351H57.9402Z" fill="#E95441"/>
<path d="M67.6083 39.4762H67.0058V35.427H64.7693V39.4762H64.1719V34.9419H67.6083V39.4762Z" fill="#E95441"/>
<path d="M72.5986 38.2864H70.6991L70.2702 39.4762H69.6523L71.3833 34.9419H71.9093L73.6454 39.4762H73.0326L72.5986 38.2864ZM70.8778 37.7963H72.4199L71.6489 35.6772L70.8778 37.7963Z" fill="#E95441"/>
<path d="M79.1477 39.4762H78.5452V37.3776H76.2576V39.4762H75.6602V34.9419H76.2576V36.8925H78.5452V34.9419H79.1477V39.4762Z" fill="#E95441"/>
<path d="M84.4746 34.937H85.072V39.4713H84.4746V35.9736L82.2432 39.4713H81.6406V34.937H82.2432V38.4348L84.4746 34.937Z" fill="#E95441"/>
<path d="M89.941 39.4764V37.7097H88.8942L87.9547 39.4764H87.3164L88.3683 37.5463C87.7811 37.3165 87.49 36.9029 87.49 36.3106C87.49 35.8766 87.633 35.5447 87.9138 35.3047C88.1998 35.0647 88.5929 34.9473 89.0985 34.9473H90.5435V39.4816H89.941V39.4764ZM88.0926 36.3055C88.0926 36.5812 88.1794 36.8008 88.3479 36.9693C88.5215 37.1378 88.7563 37.2195 89.0627 37.2195H89.941V35.4272H89.0882C88.7665 35.4272 88.5164 35.5038 88.3428 35.657C88.1691 35.8102 88.0874 36.0247 88.0874 36.3055H88.0926Z" fill="#E95441"/>
<path d="M53.1137 16.1003C52.8992 16.5598 52.6235 16.8254 52.118 16.8254C51.6125 16.8254 51.3418 16.5649 51.112 16.1003L48.3803 10.4069V17.7547C48.3803 18.2347 48.37 18.3879 48.2373 18.6381C48.0943 18.8985 47.793 19.0823 47.405 19.0823C47.0169 19.0823 46.7156 18.9036 46.5727 18.6381C46.4348 18.3827 46.4297 18.2296 46.4297 17.7547V7.26658C46.4297 6.94999 46.4756 6.60789 46.7207 6.35258C46.9301 6.14323 47.1905 6.06152 47.4356 6.06152C47.6603 6.06152 47.8594 6.11769 47.9871 6.18918C48.1403 6.28109 48.3394 6.5262 48.467 6.7764L52.118 14.2263L55.7536 6.7764C55.8812 6.52109 56.0804 6.28109 56.2336 6.18918C56.3612 6.11769 56.5604 6.06152 56.785 6.06152C57.0301 6.06152 57.2905 6.14323 57.4999 6.35258C57.745 6.60789 57.7909 6.94999 57.7909 7.26658V17.7547C57.7909 18.2347 57.7807 18.3879 57.648 18.6381C57.505 18.8985 57.2037 19.0823 56.8157 19.0823C56.4276 19.0823 56.1263 18.9036 55.9834 18.6381C55.8455 18.3827 55.8404 18.2296 55.8404 17.7547V10.4069L53.1188 16.1003H53.1137Z" fill="#E95441"/>
<path d="M65.4755 18.6381C65.3326 18.8985 65.0313 19.0823 64.6432 19.0823C64.2552 19.0823 63.959 18.9036 63.8109 18.6381C63.6731 18.3827 63.668 18.2296 63.668 17.7547V7.39423C63.668 6.91425 63.6782 6.76107 63.8109 6.50576C63.9539 6.24534 64.2552 6.06152 64.6432 6.06152C65.0313 6.06152 65.3326 6.24024 65.4755 6.50576C65.6134 6.76107 65.6185 6.91425 65.6185 7.39423V17.7547C65.6185 18.2347 65.6083 18.3879 65.4755 18.6381Z" fill="#E95441"/>
<path d="M78.1762 16.1003C77.9617 16.5598 77.686 16.8254 77.1805 16.8254C76.6749 16.8254 76.4043 16.5649 76.1745 16.1003L73.4428 10.4069V17.7547C73.4428 18.2347 73.4325 18.3879 73.2998 18.6381C73.1568 18.8985 72.8555 19.0823 72.4675 19.0823C72.0794 19.0823 71.7781 18.9036 71.6351 18.6381C71.4973 18.3827 71.4922 18.2296 71.4922 17.7547V7.26658C71.4922 6.94999 71.5381 6.60789 71.7832 6.35258C71.9926 6.14323 72.253 6.06152 72.4981 6.06152C72.7228 6.06152 72.9219 6.11769 73.0496 6.18918C73.2028 6.28109 73.4019 6.5262 73.5295 6.7764L77.1805 14.2263L80.8161 6.7764C80.9437 6.52109 81.1429 6.28109 81.2961 6.18918C81.4237 6.11769 81.6228 6.06152 81.8475 6.06152C82.0926 6.06152 82.353 6.14323 82.5624 6.35258C82.8075 6.60789 82.8534 6.94999 82.8534 7.26658V17.7547C82.8534 18.2347 82.8432 18.3879 82.7105 18.6381C82.5675 18.8985 82.2662 19.0823 81.8781 19.0823C81.4901 19.0823 81.1888 18.9036 81.0458 18.6381C80.908 18.3827 80.9029 18.2296 80.9029 17.7547V10.4069L78.1813 16.1003H78.1762Z" fill="#E95441"/>
<path d="M90.5341 18.6381C90.3912 18.8985 90.0899 19.0823 89.7018 19.0823C89.3138 19.0823 89.0125 18.9036 88.8695 18.6381C88.7317 18.3827 88.7266 18.2296 88.7266 17.7547V7.39423C88.7266 6.91425 88.7368 6.76107 88.8695 6.50576C89.0125 6.24534 89.3138 6.06152 89.7018 6.06152C90.0899 6.06152 90.3912 6.24024 90.5341 6.50576C90.672 6.76107 90.6771 6.91425 90.6771 7.39423V17.7547C90.6771 18.2347 90.6669 18.3879 90.5341 18.6381Z" fill="#E95441"/>
<path d="M98.5053 17.7547C98.5053 18.2347 98.4951 18.3879 98.3623 18.6381C98.2193 18.8985 97.9181 19.0823 97.53 19.0823C97.1419 19.0823 96.8406 18.9036 96.6977 18.6381C96.5598 18.3827 96.5547 18.2296 96.5547 17.7547V7.31254C96.5547 6.88873 96.616 6.58745 96.8355 6.37299C97.0347 6.17385 97.2798 6.06663 97.5759 6.06663C98.0355 6.06663 98.3266 6.34747 98.7146 6.92447L104.301 15.176V7.39423C104.301 6.91425 104.311 6.76107 104.444 6.50576C104.587 6.24534 104.888 6.06152 105.276 6.06152C105.664 6.06152 105.965 6.24024 106.108 6.50576C106.246 6.76107 106.251 6.91425 106.251 7.39423V17.8466C106.251 18.2704 106.19 18.5615 105.97 18.7759C105.771 18.9751 105.526 19.0823 105.23 19.0823C104.771 19.0823 104.479 18.8015 104.091 18.2245L98.5053 9.97285V17.7547Z" fill="#E95441"/>
<path d="M111.676 12.5715C111.676 9.87035 111.722 8.58359 112.968 7.33768C113.8 6.50538 114.882 6.02539 116.302 6.02539C117.722 6.02539 118.799 6.50538 119.631 7.33768C120.877 8.58359 120.933 9.87035 120.933 12.5715C120.933 15.2727 120.877 16.5595 119.631 17.8054C118.799 18.6377 117.716 19.1177 116.302 19.1177C114.888 19.1177 113.8 18.6377 112.968 17.8054C111.722 16.5595 111.676 15.2727 111.676 12.5715ZM116.302 17.3815C117.078 17.3815 117.742 17.0752 118.217 16.5697C118.85 15.8905 118.978 15.1246 118.978 12.5715C118.978 10.0184 118.85 9.24228 118.217 8.56826C117.737 8.06275 117.078 7.76151 116.302 7.76151C115.526 7.76151 114.857 8.05764 114.387 8.56826C113.744 9.24738 113.626 10.0235 113.626 12.5715C113.626 15.1195 113.744 15.8905 114.387 16.5697C114.857 17.0752 115.516 17.3815 116.302 17.3815Z" fill="#E95441"/>
</svg>
