<svg width="19" height="22" viewBox="0 0 19 22" fill="none" xmlns="http://www.w3.org/2000/svg">
<path fill-rule="evenodd" clip-rule="evenodd" d="M11.1768 6.4412L11.2152 5.23674C12.5999 5.26706 13.7757 4.67722 14.6274 3.5389C16.9379 4.36852 18.0231 5.88997 18.0231 7.67048V22.0001C15.9846 21.4157 14.6109 19.7675 14.6109 17.9153V5.38007C13.6081 6.1022 12.4707 6.47428 11.1768 6.44396V6.4412ZM15.751 0.00268555C15.0422 0.00268555 14.468 0.57873 14.468 1.28983C14.468 2.00094 15.0422 2.57698 15.751 2.57698C16.4598 2.57698 17.034 2.00094 17.034 1.28983C17.034 0.57873 16.4598 0.00268555 15.751 0.00268555Z" fill="#E95441"/>
<path fill-rule="evenodd" clip-rule="evenodd" d="M12.1774 7.66804V18.8913C10.1389 18.307 8.76525 16.6588 8.76525 14.8066V5.40794C7.80919 6.17417 6.61136 6.36986 5.11133 6.21551V4.98349C6.93554 5.25911 7.90534 4.78227 8.6636 3.54198C10.8724 4.15937 12.1774 5.82688 12.1774 7.67354V7.66804ZM9.90814 0.000244141C9.19934 0.000244141 8.62514 0.576289 8.62514 1.28739C8.62514 1.9985 9.19934 2.57454 9.90814 2.57454C10.617 2.57454 11.1911 1.9985 11.1911 1.28739C11.1911 0.576289 10.617 0.000244141 9.90814 0.000244141Z" fill="#E95441"/>
<path fill-rule="evenodd" clip-rule="evenodd" d="M6.2831 7.6678V15.2446C4.2446 14.6603 2.87095 13.0121 2.87095 11.1599V5.44077C2.04126 6.08848 1.06046 6.46057 0 6.56255V5.36359C1.23354 5.19821 2.16763 4.5505 2.87095 3.53897C5.0688 4.27213 6.26662 5.87626 6.2831 7.67056V7.6678ZM4.01382 0C3.30501 0 2.73083 0.576045 2.73083 1.28715C2.73083 1.99825 3.30501 2.5743 4.01382 2.5743C4.72263 2.5743 5.29681 1.99825 5.29681 1.28715C5.29681 0.576045 4.72263 0 4.01382 0Z" fill="#E95441"/>
</svg>
