<svg width="141" height="47" viewBox="0 0 141 47" fill="none" xmlns="http://www.w3.org/2000/svg">
<path fill-rule="evenodd" clip-rule="evenodd" d="M24.7299 13.7606L24.8123 11.1875C27.7784 11.2522 30.2973 9.99211 32.1217 7.56025C37.0712 9.33263 39.3958 12.583 39.3958 16.3868V47C35.029 45.7517 32.0864 42.2305 32.0864 38.2735V11.4937C29.9383 13.0364 27.5018 13.8313 24.7299 13.7665V13.7606ZM34.5288 0.00561523C33.0104 0.00561523 31.7803 1.23626 31.7803 2.75543C31.7803 4.27461 33.0104 5.50525 34.5288 5.50525C36.0471 5.50525 37.2771 4.27461 37.2771 2.75543C37.2771 1.23626 36.0471 0.00561523 34.5288 0.00561523Z" fill="white"/>
<path fill-rule="evenodd" clip-rule="evenodd" d="M26.8732 16.3812V40.3583C22.5064 39.11 19.5638 35.5888 19.5638 31.6318V11.5528C17.5157 13.1897 14.9498 13.6078 11.7365 13.2781V10.646C15.6442 11.2349 17.7217 10.2162 19.346 7.56643C24.0777 8.8854 26.8732 12.4478 26.8732 16.393V16.3812ZM22.0121 0C20.4937 0 19.2636 1.23064 19.2636 2.74982C19.2636 4.26899 20.4937 5.49964 22.0121 5.49964C23.5304 5.49964 24.7604 4.26899 24.7604 2.74982C24.7604 1.23064 23.5304 0 22.0121 0Z" fill="white"/>
<path fill-rule="evenodd" clip-rule="evenodd" d="M14.2466 16.3812V32.5681C9.87977 31.3198 6.93717 27.7986 6.93717 23.8416V11.6235C5.15983 13.0072 3.0588 13.8021 0.787109 14.02V11.4586C3.42957 11.1053 5.43055 9.72153 6.93717 7.56053C11.6453 9.12681 14.2113 12.5538 14.2466 16.3871V16.3812ZM9.3854 0C7.86702 0 6.63702 1.23064 6.63702 2.74982C6.63702 4.26899 7.86702 5.49963 9.3854 5.49963C10.9038 5.49963 12.1338 4.26899 12.1338 2.74982C12.1338 1.23064 10.9038 0 9.3854 0Z" fill="white"/>
<path d="M56.6555 32.8695H54.4663L53.9719 34.2415H53.2598L55.2549 29.0127H55.8611L57.862 34.2415H57.1558L56.6555 32.8695ZM54.6722 32.3042H56.4496L55.5609 29.8606L54.6722 32.3042Z" fill="white"/>
<path d="M61.9747 32.0452L63.1753 29.0069H63.9756L62.1277 33.3642C62.0041 33.641 61.8864 33.8412 61.7805 33.953C61.6745 34.0708 61.545 34.1591 61.4038 34.218C61.2567 34.2769 61.0742 34.3064 60.8624 34.3064C60.674 34.3064 60.5505 34.2946 60.4975 34.2769L60.521 33.7293L60.8506 33.7411C61.1037 33.7411 61.2861 33.6174 61.4097 33.376L61.498 33.1876L61.6333 32.8696L59.8501 28.9951H60.6211L61.9747 32.0335V32.0452Z" fill="white"/>
<path d="M70.099 29.5711H68.4158V34.2405H67.7273V29.5711H66.05V29.0059H70.0931V29.5711H70.099Z" fill="white"/>
<path d="M76.2441 32.5804C76.1793 33.1339 75.9733 33.5637 75.632 33.864C75.2906 34.1643 74.8316 34.3174 74.2607 34.3174C73.6428 34.3174 73.1484 34.0937 72.7777 33.652C72.4069 33.2104 72.2186 32.6157 72.2186 31.8738V31.3674C72.2186 30.8787 72.3068 30.4547 72.4775 30.0837C72.6541 29.7128 72.8954 29.4301 73.2132 29.2358C73.531 29.0356 73.9017 28.9414 74.3196 28.9414C74.8728 28.9414 75.3201 29.0945 75.6555 29.4066C75.991 29.7187 76.1852 30.1485 76.2382 30.6961H75.5437C75.4849 30.2781 75.3554 29.9777 75.1553 29.7893C74.9552 29.6009 74.6727 29.5067 74.3196 29.5067C73.8782 29.5067 73.531 29.6716 73.2838 29.9954C73.0366 30.3193 72.9071 30.7845 72.9071 31.3851V31.8914C72.9071 32.4567 73.0249 32.9101 73.2603 33.2457C73.4957 33.5814 73.8311 33.7522 74.2549 33.7522C74.6374 33.7522 74.9317 33.6638 75.1376 33.4931C75.3436 33.3164 75.479 33.0161 75.5437 32.5863H76.2382L76.2441 32.5804Z" fill="white"/>
<path d="M82.8236 31.7914C82.8236 32.3036 82.7354 32.7512 82.5647 33.1339C82.394 33.5166 82.1468 33.8052 81.8349 34.0112C81.5171 34.2114 81.1522 34.3116 80.7285 34.3116C80.3048 34.3116 79.9516 34.2114 79.6338 34.0053C79.316 33.8051 79.0689 33.5166 78.8923 33.1398C78.7158 32.7629 78.6275 32.3331 78.6216 31.8385V31.4616C78.6216 30.9611 78.7099 30.5136 78.8864 30.1309C79.063 29.7481 79.3102 29.4478 79.628 29.2476C79.9458 29.0474 80.3106 28.9414 80.7226 28.9414C81.1346 28.9414 81.5112 29.0415 81.829 29.2476C82.1468 29.4478 82.394 29.7422 82.5647 30.1309C82.7354 30.5195 82.8236 30.9611 82.8236 31.4734V31.8031V31.7914ZM82.135 31.4557C82.135 30.8374 82.0114 30.3605 81.7643 30.0249C81.5171 29.6951 81.164 29.5244 80.7167 29.5244C80.2694 29.5244 79.9399 29.6892 79.6868 30.0249C79.4396 30.3546 79.3101 30.8139 79.2984 31.4086V31.7914C79.2984 32.392 79.422 32.863 79.675 33.2104C79.9281 33.5519 80.2753 33.7286 80.7167 33.7286C81.1581 33.7286 81.5053 33.5637 81.7525 33.2399C81.9938 32.916 82.1233 32.4509 82.1292 31.8444V31.4557H82.135Z" fill="white"/>
<path d="M86.162 32.1923V34.2415H85.4734V29.0127H87.4038C87.9747 29.0127 88.4219 29.1599 88.7515 29.4484C89.0752 29.7428 89.24 30.1256 89.24 30.6084C89.24 31.1148 89.0811 31.5093 88.7633 31.7802C88.4455 32.0569 87.9923 32.1923 87.3979 32.1923H86.1679H86.162ZM86.162 31.6271H87.3979C87.7687 31.6271 88.0512 31.5388 88.2454 31.368C88.4396 31.1914 88.5397 30.944 88.5397 30.6143C88.5397 30.2845 88.4396 30.0549 88.2454 29.8665C88.0512 29.678 87.7805 29.5838 87.4391 29.5779H86.162V31.633V31.6271Z" fill="white"/>
<path d="M95.5759 32.5804C95.5111 33.1339 95.3052 33.5637 94.9638 33.864C94.6225 34.1643 94.1634 34.3174 93.5925 34.3174C92.9746 34.3174 92.4802 34.0937 92.1095 33.652C91.7387 33.2104 91.5504 32.6157 91.5504 31.8738V31.3674C91.5504 30.8787 91.6386 30.4547 91.8093 30.0837C91.9859 29.7128 92.2272 29.4301 92.545 29.2358C92.8628 29.0356 93.2335 28.9414 93.6514 28.9414C94.2046 28.9414 94.6519 29.0945 94.9873 29.4066C95.3228 29.7187 95.517 30.1485 95.57 30.6961H94.8755C94.8167 30.2781 94.6872 29.9777 94.4871 29.7893C94.287 29.6009 94.0045 29.5067 93.6514 29.5067C93.21 29.5067 92.8628 29.6716 92.6156 29.9954C92.3684 30.3193 92.239 30.7845 92.239 31.3851V31.8914C92.239 32.4567 92.3566 32.9101 92.592 33.2457C92.8275 33.5814 93.1629 33.7522 93.5867 33.7522C93.9692 33.7522 94.2635 33.6638 94.4694 33.4931C94.6754 33.3164 94.8108 33.0161 94.8755 32.5863H95.57L95.5759 32.5804Z" fill="white"/>
<path d="M101.43 29.0059H102.119V34.2347H101.43V30.2012L98.8586 34.2347H98.1641V29.0059H98.8586V33.0393L101.43 29.0059Z" fill="white"/>
<path d="M109.014 34.2415H108.32V31.8214H105.683V34.2415H104.995V29.0127H105.683V31.262H108.32V29.0127H109.014V34.2415Z" fill="white"/>
<path d="M115.101 29.5721H112.582V34.2415H111.887V29.0127H115.101V29.5779V29.5721Z" fill="white"/>
<path d="M121.345 31.7914C121.345 32.3036 121.256 32.7512 121.086 33.1339C120.915 33.5166 120.668 33.8052 120.356 34.0112C120.038 34.2114 119.673 34.3116 119.249 34.3116C118.826 34.3116 118.473 34.2114 118.155 34.0053C117.837 33.8051 117.59 33.5166 117.413 33.1398C117.237 32.7629 117.148 32.3331 117.143 31.8385V31.4616C117.143 30.9611 117.231 30.5136 117.407 30.1309C117.584 29.7481 117.831 29.4478 118.149 29.2476C118.467 29.0474 118.832 28.9414 119.244 28.9414C119.655 28.9414 120.032 29.0415 120.35 29.2476C120.668 29.4478 120.915 29.7422 121.086 30.1309C121.256 30.5195 121.345 30.9611 121.345 31.4734V31.8031V31.7914ZM120.656 31.4557C120.656 30.8374 120.532 30.3605 120.285 30.0249C120.038 29.6951 119.685 29.5244 119.238 29.5244C118.79 29.5244 118.461 29.6892 118.208 30.0249C117.961 30.3546 117.831 30.8139 117.819 31.4086V31.7914C117.819 32.392 117.943 32.863 118.196 33.2104C118.449 33.5519 118.796 33.7286 119.238 33.7286C119.679 33.7286 120.026 33.5637 120.273 33.2399C120.515 32.916 120.644 32.4509 120.65 31.8444V31.4557H120.656Z" fill="white"/>
<path d="M123.998 34.2415V29.0127H125.705C126.27 29.0127 126.7 29.1304 126.988 29.366C127.276 29.6015 127.418 29.9489 127.418 30.4082C127.418 30.6496 127.347 30.8675 127.212 31.0559C127.07 31.2443 126.882 31.3915 126.647 31.4916C126.929 31.5682 127.153 31.7213 127.318 31.945C127.482 32.1688 127.565 32.4338 127.565 32.7341C127.565 33.2051 127.412 33.5702 127.106 33.8411C126.8 34.1119 126.37 34.2415 125.817 34.2415H124.004H123.998ZM124.687 31.2443H125.729C126.029 31.2443 126.27 31.1678 126.452 31.0147C126.635 30.8616 126.723 30.6555 126.723 30.3964C126.723 30.1079 126.641 29.8959 126.47 29.7664C126.305 29.6368 126.046 29.5721 125.705 29.5721H124.687V31.2384V31.2443ZM124.687 31.7978V33.6821H125.823C126.146 33.6821 126.394 33.5996 126.582 33.4348C126.77 33.2699 126.858 33.0403 126.858 32.7458C126.858 32.1158 126.517 31.8037 125.829 31.8037H124.681L124.687 31.7978Z" fill="white"/>
<path d="M133.085 32.8695H130.895L130.401 34.2415H129.689L131.684 29.0127H132.29L134.291 34.2415H133.585L133.085 32.8695ZM131.101 32.3042H132.879L131.99 29.8606L131.101 32.3042Z" fill="white"/>
<path d="M139.347 34.2405V32.2032H138.141L137.058 34.2405H136.322L137.534 32.0147C136.858 31.7498 136.522 31.2728 136.522 30.5898C136.522 30.0893 136.687 29.7065 137.011 29.4298C137.34 29.153 137.793 29.0176 138.376 29.0176H140.041V34.2464H139.347V34.2405ZM137.217 30.5839C137.217 30.9018 137.317 31.155 137.511 31.3494C137.711 31.5437 137.982 31.6379 138.335 31.6379H139.347V29.5711H138.364C137.993 29.5711 137.705 29.6594 137.505 29.8361C137.305 30.0127 137.211 30.26 137.211 30.5839H137.217Z" fill="white"/>
<path d="M55.1246 43.1733H54.489V45.5227H53.8005V40.2939H54.489V42.6021H55.0246L56.8549 40.2939H57.7141L55.719 42.8318L57.8613 45.5286H57.0197L55.1246 43.1792V43.1733Z" fill="white"/>
<path d="M64.0209 43.0735C64.0209 43.5858 63.9326 44.0333 63.7619 44.4161C63.5913 44.7988 63.3441 45.0873 63.0322 45.2934C62.7144 45.4936 62.3495 45.5937 61.9258 45.5937C61.502 45.5937 61.1489 45.4936 60.8311 45.2875C60.5133 45.0873 60.2661 44.7988 60.0896 44.422C59.913 44.0451 59.8247 43.6153 59.8188 43.1207V42.7438C59.8188 42.2433 59.9071 41.7958 60.0837 41.4131C60.2602 41.0303 60.5074 40.73 60.8252 40.5298C61.143 40.3237 61.5079 40.2236 61.9199 40.2236C62.3318 40.2236 62.7085 40.3237 63.0263 40.5298C63.3441 40.73 63.5913 41.0245 63.7619 41.4131C63.9326 41.7958 64.0209 42.2433 64.0209 42.7556V43.0853V43.0735ZM63.3323 42.7379C63.3323 42.1197 63.2087 41.6427 62.9615 41.3071C62.7144 40.9773 62.3613 40.8066 61.914 40.8066C61.4667 40.8066 61.1371 40.9714 60.8841 41.3071C60.6369 41.6368 60.5074 42.102 60.4957 42.6908V43.0735C60.4957 43.6741 60.6192 44.1452 60.8723 44.4926C61.1254 44.8342 61.4726 45.0108 61.914 45.0108C62.3554 45.0108 62.7026 44.8459 62.9498 44.5221C63.1911 44.1982 63.3206 43.733 63.3264 43.1266V42.7379H63.3323Z" fill="white"/>
<path d="M67.5673 40.2881L69.274 44.5571L70.9807 40.2881H71.8752V45.5169H71.1867V43.4795L71.2514 41.2832L69.5329 45.5169H69.0033L67.2907 41.2891L67.3613 43.4795V45.5169H66.6727V40.2881H67.5614H67.5673Z" fill="white"/>
<path d="M78.7093 45.5227H78.0149V40.8533H75.4372V45.5227H74.7486V40.2939H78.7093V45.5227Z" fill="white"/>
<path d="M84.4612 44.1509H82.2719L81.7776 45.5229H81.0654L83.0605 40.2941H83.6667L85.6677 45.5229H84.9614L84.4612 44.1509ZM82.4779 43.5856H84.2552L83.3666 41.142L82.4779 43.5856Z" fill="white"/>
<path d="M92.0095 45.5229H91.315V43.1028H88.6784V45.5229H87.9899V40.2941H88.6784V42.5434H91.315V40.2941H92.0095V45.5229Z" fill="white"/>
<path d="M98.1489 40.2881H98.8375V45.5169H98.1489V41.4834L95.5771 45.5169H94.8826V40.2881H95.5771V44.3216L98.1489 40.2881Z" fill="white"/>
<path d="M104.449 45.5227V43.4853H103.243L102.16 45.5227H101.424L102.636 43.2969C101.96 43.0319 101.624 42.555 101.624 41.872C101.624 41.3715 101.789 40.9887 102.113 40.712C102.442 40.4352 102.895 40.2998 103.478 40.2998H105.144V45.5286H104.449V45.5227ZM102.319 41.8661C102.319 42.184 102.419 42.4372 102.613 42.6315C102.813 42.8259 103.084 42.9201 103.437 42.9201H104.449V40.8533H103.466C103.096 40.8533 102.807 40.9416 102.607 41.1183C102.407 41.2949 102.313 41.5422 102.313 41.8661H102.319Z" fill="white"/>
<path d="M62.004 18.5656C61.7568 19.0955 61.439 19.4018 60.8564 19.4018C60.2737 19.4018 59.9618 19.1014 59.697 18.5656L56.5484 12.0002V20.4734C56.5484 21.0269 56.5366 21.2036 56.3836 21.4921C56.2188 21.7924 55.8716 22.0044 55.4243 22.0044C54.977 22.0044 54.6298 21.7983 54.465 21.4921C54.3061 21.1977 54.3002 21.021 54.3002 20.4734V8.37888C54.3002 8.01381 54.3532 7.61931 54.6357 7.32489C54.877 7.08347 55.1771 6.98926 55.4596 6.98926C55.7186 6.98926 55.9481 7.05403 56.0952 7.13646C56.2718 7.24245 56.5013 7.52511 56.6484 7.81363L60.8564 16.4046L65.0466 7.81363C65.1938 7.51922 65.4233 7.24245 65.5999 7.13646C65.747 7.05403 65.9765 6.98926 66.2355 6.98926C66.518 6.98926 66.8181 7.08347 67.0594 7.32489C67.3419 7.61931 67.3948 8.01381 67.3948 8.37888V20.4734C67.3948 21.0269 67.3831 21.2036 67.23 21.4921C67.0652 21.7924 66.7181 22.0044 66.2708 22.0044C65.8235 22.0044 65.4763 21.7983 65.3115 21.4921C65.1526 21.1977 65.1467 21.021 65.1467 20.4734V12.0002L62.0099 18.5656H62.004Z" fill="white"/>
<path d="M76.2521 21.4921C76.0873 21.7924 75.7401 22.0044 75.2928 22.0044C74.8455 22.0044 74.5042 21.7983 74.3335 21.4921C74.1746 21.1977 74.1688 21.021 74.1688 20.4734V8.52609C74.1688 7.97259 74.1805 7.79595 74.3335 7.50154C74.4983 7.20123 74.8455 6.98926 75.2928 6.98926C75.7401 6.98926 76.0873 7.19534 76.2521 7.50154C76.411 7.79595 76.4169 7.97259 76.4169 8.52609V20.4734C76.4169 21.0269 76.4051 21.2036 76.2521 21.4921Z" fill="white"/>
<path d="M90.8893 18.5666C90.6421 19.0965 90.3243 19.4027 89.7417 19.4027C89.159 19.4027 88.8471 19.1024 88.5823 18.5666L85.4337 12.0012V20.4744C85.4337 21.0279 85.4219 21.2045 85.2689 21.4931C85.1041 21.7934 84.7569 22.0054 84.3096 22.0054C83.8623 22.0054 83.5151 21.7993 83.3503 21.4931C83.1914 21.1987 83.1855 21.022 83.1855 20.4744V8.37986C83.1855 8.01479 83.2385 7.62028 83.521 7.32587C83.7623 7.08445 84.0624 6.99023 84.3449 6.99023C84.6039 6.99023 84.8334 7.05501 84.9805 7.13744C85.1571 7.24343 85.3866 7.52608 85.5337 7.81461L89.7417 16.4056L93.932 7.81461C94.0791 7.52019 94.3086 7.24343 94.4852 7.13744C94.6323 7.05501 94.8618 6.99023 95.1207 6.99023C95.4032 6.99023 95.7034 7.08445 95.9447 7.32587C96.2272 7.62028 96.2802 8.01479 96.2802 8.37986V20.4744C96.2802 21.0279 96.2684 21.2045 96.1154 21.4931C95.9506 21.7934 95.6033 22.0054 95.1561 22.0054C94.7088 22.0054 94.3616 21.7993 94.1968 21.4931C94.0379 21.1987 94.032 21.022 94.032 20.4744V12.0012L90.8952 18.5666H90.8893Z" fill="white"/>
<path d="M105.134 21.4931C104.969 21.7934 104.622 22.0054 104.174 22.0054C103.727 22.0054 103.38 21.7993 103.215 21.4931C103.056 21.1987 103.05 21.022 103.05 20.4744V8.52707C103.05 7.97357 103.062 7.79693 103.215 7.50251C103.38 7.20221 103.727 6.99023 104.174 6.99023C104.622 6.99023 104.969 7.19632 105.134 7.50251C105.292 7.79693 105.298 7.97357 105.298 8.52707V20.4744C105.298 21.0279 105.287 21.2045 105.134 21.4931Z" fill="white"/>
<path d="M114.321 20.4744C114.321 21.0279 114.309 21.2045 114.156 21.4931C113.991 21.7934 113.644 22.0054 113.197 22.0054C112.75 22.0054 112.402 21.7993 112.238 21.4931C112.079 21.1987 112.073 21.022 112.073 20.4744V8.43287C112.073 7.94414 112.143 7.59672 112.397 7.34941C112.626 7.11977 112.909 6.99613 113.25 6.99613C113.78 6.99613 114.115 7.31998 114.562 7.98536L121.001 17.5008V8.52707C121.001 7.97357 121.013 7.79693 121.166 7.50251C121.33 7.20221 121.678 6.99023 122.125 6.99023C122.572 6.99023 122.919 7.19632 123.084 7.50251C123.243 7.79693 123.249 7.97357 123.249 8.52707V20.5804C123.249 21.0691 123.178 21.4048 122.925 21.6521C122.696 21.8817 122.413 22.0054 122.072 22.0054C121.542 22.0054 121.207 21.6815 120.759 21.0161L114.321 11.5006V20.4744Z" fill="white"/>
<path d="M129.501 14.497C129.501 11.3821 129.554 9.89828 130.99 8.46153C131.95 7.50174 133.197 6.94824 134.833 6.94824C136.469 6.94824 137.711 7.50174 138.67 8.46153C140.106 9.89828 140.171 11.3821 140.171 14.497C140.171 17.6119 140.106 19.0958 138.67 20.5325C137.711 21.4923 136.463 22.0458 134.833 22.0458C133.203 22.0458 131.95 21.4923 130.99 20.5325C129.554 19.0958 129.501 17.6119 129.501 14.497ZM134.833 20.0438C135.728 20.0438 136.493 19.6905 137.04 19.1076C137.77 18.3244 137.917 17.4412 137.917 14.497C137.917 11.5529 137.77 10.6578 137.04 9.88059C136.487 9.29765 135.728 8.95027 134.833 8.95027C133.939 8.95027 133.168 9.29177 132.626 9.88059C131.885 10.6637 131.749 11.5588 131.749 14.497C131.749 17.4353 131.885 18.3244 132.626 19.1076C133.168 19.6905 133.927 20.0438 134.833 20.0438Z" fill="white"/>
</svg>
