<svg width="643" height="275" viewBox="0 0 643 275" fill="none" xmlns="http://www.w3.org/2000/svg">
<path d="M551.105 107.587L550.832 107.331L551.105 107.587ZM373.001 155.5L372.854 155.845L373.001 155.5ZM383.5 99.5L383.532 99.8737L383.551 99.872L383.571 99.8684L383.5 99.5ZM418.929 172.356L418.614 172.154L418.614 172.154L418.929 172.356ZM314.547 187.254L314.724 186.923L314.724 186.923L314.547 187.254ZM16.9663 210.219C16.9431 210.425 17.0911 210.611 17.2969 210.634L20.6507 211.012C20.8565 211.035 21.0421 210.887 21.0653 210.681C21.0885 210.476 20.9405 210.29 20.7347 210.267L17.7536 209.931L18.0897 206.95C18.1129 206.744 17.9648 206.558 17.759 206.535C17.5532 206.512 17.3676 206.66 17.3444 206.866L16.9663 210.219ZM611.508 -0.790093C611.133 -0.790091 611.133 -0.790173 611.133 -0.790096C611.133 -0.789845 611.133 -0.789595 611.133 -0.789107C611.133 -0.788104 611.133 -0.786439 611.133 -0.784116C611.133 -0.779456 611.133 -0.772134 611.133 -0.762166C611.133 -0.74223 611.132 -0.711697 611.132 -0.670647C611.13 -0.588559 611.126 -0.464427 611.119 -0.298965C611.104 0.0319857 611.075 0.528289 611.017 1.18437C610.9 2.4965 610.665 4.44774 610.196 6.99323C609.256 12.0841 607.375 19.5526 603.609 29.04C596.078 48.0139 581.004 75.0688 550.832 107.331L551.379 107.843C581.61 75.5182 596.737 48.3846 604.307 29.3167C608.091 19.7831 609.985 12.2675 610.933 7.12934C611.407 4.56033 611.645 2.58588 611.764 1.25095C611.823 0.583495 611.853 0.0759322 611.868 -0.266126C611.876 -0.437148 611.879 -0.56679 611.881 -0.654361C611.882 -0.69814 611.883 -0.731395 611.883 -0.754046C611.883 -0.765371 611.883 -0.774049 611.883 -0.780062C611.883 -0.783069 611.883 -0.785403 611.883 -0.787076C611.883 -0.787912 611.883 -0.78867 611.883 -0.789082C611.883 -0.789667 611.883 -0.790094 611.508 -0.790093ZM550.832 107.331C529.325 130.327 496.201 147.069 462.779 155.666C429.348 164.264 395.701 164.693 373.147 155.155L372.854 155.845C395.624 165.474 429.459 165.01 462.965 156.392C496.48 147.772 529.747 130.974 551.379 107.843L550.832 107.331ZM373.147 155.155C360.932 149.989 353.317 144.123 349.287 138.218C345.268 132.33 344.803 126.388 346.912 120.991C349.029 115.576 353.753 110.669 360.181 106.926C366.606 103.184 374.708 100.619 383.532 99.8737L383.469 99.1263C374.543 99.8806 366.333 102.476 359.804 106.278C353.279 110.077 348.41 115.098 346.214 120.718C344.011 126.355 344.514 132.556 348.667 138.641C352.809 144.71 360.569 150.65 372.854 155.845L373.147 155.155ZM383.571 99.8684C387.93 99.0398 393.595 101.058 399.365 105.166C405.119 109.262 410.906 115.388 415.486 122.638C424.655 137.15 428.93 156.055 418.614 172.154L419.245 172.559C429.784 156.114 425.368 136.875 416.12 122.238C411.493 114.913 405.641 108.713 399.8 104.555C393.977 100.409 388.095 98.245 383.43 99.1316L383.571 99.8684ZM418.614 172.154C405.94 191.934 364.054 213.276 314.724 186.923L314.37 187.585C364.031 214.114 406.351 192.682 419.245 172.558L418.614 172.154ZM314.724 186.923C267.379 161.641 210.202 153.67 156.261 158.879C102.323 164.088 51.5801 182.479 17.1052 209.968L17.5727 210.555C51.908 183.176 102.503 164.824 156.334 159.625C210.162 154.427 267.184 162.387 314.37 187.585L314.724 186.923Z" fill="#6BD1C5"/>
</svg>
