<svg width="155" height="126" viewBox="0 0 155 126" fill="none" xmlns="http://www.w3.org/2000/svg">
<path d="M61.8352 83.0087L61.4005 83.2558L61.8352 83.0087ZM17.5198 94.814C17.411 95.0678 17.5285 95.3617 17.7823 95.4706L21.918 97.2441C22.1718 97.3529 22.4658 97.2354 22.5746 96.9816C22.6835 96.7278 22.566 96.4339 22.3122 96.325L18.6359 94.7486L20.2124 91.0723C20.3212 90.8185 20.2037 90.5246 19.9499 90.4157C19.6961 90.3069 19.4022 90.4244 19.2933 90.6782L17.5198 94.814ZM118.376 2.95809C133.414 17.2157 139.126 32.4013 138.849 46.3707C138.572 60.3532 132.294 73.1762 123.247 82.6868C114.195 92.2018 102.411 98.3607 91.1723 99.0685C79.9668 99.7742 69.2666 95.0679 62.2698 82.7615L61.4005 83.2558C68.5921 95.9048 79.6602 100.795 91.2352 100.067C102.777 99.3396 114.786 93.0322 123.971 83.376C133.162 73.7154 139.566 60.6623 139.849 46.3905C140.132 32.1056 134.28 16.6587 119.064 2.23241L118.376 2.95809ZM62.2698 82.7615C55.6685 71.1507 52.0085 61.8724 50.3966 54.6243C48.7835 47.3706 49.2305 42.1932 50.7835 38.7457C52.327 35.3193 54.9779 33.562 57.9116 33.138C60.8652 32.7111 64.1453 33.6322 66.8977 35.6563C69.6453 37.6767 71.8446 40.7811 72.6472 44.684C73.4489 48.583 72.864 53.3163 69.978 58.6053C64.1944 69.2047 49.1837 81.9986 17.7937 94.5468L18.1649 95.4753C49.6241 82.8995 64.9032 69.9933 70.8559 59.0843C73.838 53.6191 74.4828 48.646 73.6267 44.4826C72.7714 40.3231 70.4251 37.0089 67.4902 34.8506C64.5601 32.696 61.0207 31.6782 57.7686 32.1483C54.4966 32.6212 51.5556 34.5968 49.8717 38.3349C48.1973 42.052 47.7814 47.4709 49.4205 54.8414C51.0609 62.2174 54.7684 71.591 61.4005 83.2558L62.2698 82.7615Z" fill="#6BD1C5"/>
</svg>
