<svg width="290" height="181" viewBox="0 0 290 181" fill="none" xmlns="http://www.w3.org/2000/svg">
<path d="M161.433 17.5665L161.75 17.9531L161.433 17.5665ZM106.042 55.8223L106.278 55.3813L106.042 55.8223ZM4.00423 63.825C4.14716 64.0613 4.45457 64.137 4.69084 63.994L8.5411 61.6648C8.77737 61.5218 8.85303 61.2144 8.7101 60.9781C8.56716 60.7419 8.25975 60.6662 8.02348 60.8091L4.60103 62.8796L2.53057 59.4572C2.38763 59.2209 2.08022 59.1452 1.84395 59.2882C1.60768 59.4311 1.53202 59.7385 1.67495 59.9748L4.00423 63.825ZM299.428 120.567C256.926 118.745 211.547 101.912 182.291 81.0528C167.656 70.6181 157.118 59.2202 152.95 48.2492C150.869 42.7741 150.38 37.4196 151.741 32.3391C153.101 27.2587 156.324 22.4049 161.75 17.9531L161.115 17.18C155.562 21.7367 152.2 26.7597 150.775 32.0805C149.35 37.4013 149.875 42.9727 152.015 48.6044C156.287 59.8473 167.012 71.3875 181.71 81.867C211.121 102.836 256.687 119.736 299.385 121.566L299.428 120.567ZM161.75 17.9531C171.328 10.0937 185.955 8.88031 199.196 13.185C212.428 17.4866 224.147 27.2582 227.95 41.1981L228.915 40.9349C225.001 26.5893 212.969 16.6109 199.506 12.234C186.051 7.85998 171.037 9.03941 161.115 17.18L161.75 17.9531ZM227.95 41.1981C229.819 48.047 227.365 54.5265 221.517 59.8977C215.655 65.2806 206.404 69.5193 194.808 71.7897C171.626 76.3287 139.216 72.9702 106.278 55.3813L105.807 56.2634C138.93 73.9516 171.574 77.3579 195.001 72.7711C206.709 70.4786 216.152 66.1818 222.193 60.6342C228.247 55.0749 230.905 48.2288 228.915 40.9349L227.95 41.1981ZM106.278 55.3813C77.0644 39.781 53.5542 33.5376 36.2993 35.3222C27.6611 36.2156 20.5785 39.1228 15.1463 43.8868C9.71456 48.6504 5.96613 55.2414 3.94653 63.4467L4.91754 63.6857C6.89754 55.6413 10.5548 49.2436 15.8057 44.6386C21.0561 40.034 27.9331 37.1928 36.4022 36.3169C53.3619 34.5628 76.6572 40.6972 105.807 56.2634L106.278 55.3813Z" fill="#6BD1C5"/>
</svg>
