<svg width="152" height="156" viewBox="0 0 152 156" fill="none" xmlns="http://www.w3.org/2000/svg">
<path d="M80.2168 102.902L80.4911 103.32L80.2168 102.902ZM114.287 133.602C114.268 133.877 114.029 134.085 113.754 134.067L109.264 133.761C108.989 133.742 108.781 133.504 108.799 133.228C108.818 132.953 109.057 132.745 109.332 132.763L113.323 133.035L113.595 129.044C113.613 128.769 113.852 128.561 114.127 128.579C114.403 128.598 114.611 128.837 114.592 129.112L114.287 133.602ZM66.3572 5.88221C46.475 11.7226 34.4719 22.6382 28.3535 35.1995C22.2294 47.7726 21.9754 62.0476 25.6961 74.6358C29.4185 87.2299 37.1026 98.0816 46.7844 103.832C56.4379 109.566 68.1071 110.251 79.9425 102.484L80.4911 103.32C68.3262 111.304 56.2454 110.614 46.2738 104.692C36.3305 98.7861 28.5147 87.7002 24.7371 74.9193C20.9577 62.1325 21.2037 47.5949 27.4545 34.7616C33.711 21.9167 45.9578 10.8323 66.0753 4.92275L66.3572 5.88221ZM79.9425 102.484C91.1089 95.1563 98.5942 88.5644 103.331 82.8467C108.072 77.1246 110.033 72.3122 110.222 68.5357C110.409 64.7824 108.849 62.0103 106.431 60.2962C103.996 58.5705 100.657 57.896 97.2846 58.4437C93.9182 58.9905 90.5461 60.7518 88.0534 63.8605C85.5632 66.966 83.9274 71.446 84.0867 77.469C84.406 89.5395 91.9391 107.767 114.165 133.239L113.411 133.897C91.1366 108.369 83.4156 89.9185 83.087 77.4955C82.9224 71.2717 84.6142 66.5511 87.2732 63.2349C89.9297 59.9219 93.5283 58.0407 97.1243 57.4566C100.714 56.8736 104.329 57.5802 107.009 59.4803C109.707 61.3921 111.424 64.4906 111.22 68.5855C111.017 72.6572 108.919 77.6705 104.101 83.4847C99.2806 89.3034 91.7095 95.9583 80.4911 103.32L79.9425 102.484Z" fill="#6BD1C5"/>
</svg>
