<svg width="547" height="793" viewBox="0 0 547 793" fill="none" xmlns="http://www.w3.org/2000/svg">
<path d="M546.758 640C544.818 661.99 534.567 672.07 516.617 672.07H494.997C472.597 671.94 444.027 679.58 434.977 716.68C427.777 746.03 414.337 766.25 393.877 778.51C378.057 787.99 357.777 792.63 332.077 792.63C299.327 792.03 275.387 781.8 259.397 762.91C243.347 745.16 234.507 721.24 234.507 695.56L234.507 582.12C234.507 564.82 231.087 551.43 224.037 541.19C213.607 526.01 195.097 518.31 169.007 518.31L90.8175 517.35C65.4075 517.35 41.7275 506.96 24.1975 488.11C7.29747 469.93 -1.45253 446.47 0.197472 423.74C1.83747 401.13 10.5775 380.57 24.8075 365.84C41.0275 349.05 63.8775 340.17 90.8675 340.17L289.667 340.17C323.357 340.17 357.357 320.39 357.357 276.21L357.297 100.65C357.297 83.83 362.367 58.34 376.627 37.26C388.107 20.27 409.827 0.02 448.067 0.02C450.147 0.02 452.187 0.02 454.187 0V31.97L452.127 31.97C422.487 31.97 407.137 48.08 399.467 61.59C393.457 72.18 389.427 87.88 389.427 100.65L389.427 276.52C389.417 304.75 379.377 328.99 360.387 346.6C342.657 363.04 318.527 372.1 292.417 372.1L91.2675 372.24C52.5975 372.24 31.7275 399.74 31.7275 425.61C31.7275 457.84 58.9975 485.06 91.2675 485.06L167.217 485.06C198.037 485.06 223.607 494.63 241.167 512.74C257.787 529.89 266.577 553.76 266.577 581.77L266.627 694.94C266.627 726.81 284.667 760.85 335.307 760.85C358.677 760.85 390.687 760.85 407.557 698.04C412.947 673.91 443.467 640 494.597 640H546.758Z" fill="url(#paint0_linear_208_22)"/>
<path d="M480.846 674.817C480.846 698.512 472.703 721.835 458.516 738.811C441.035 759.698 415.062 770.745 383.429 770.745L281.384 771C224.927 771 185.499 730.921 185.499 673.564L185 594.416L217.944 594.207C255.621 593.801 291.209 593.418 307.728 599.046C348.618 612.309 373.117 648.814 372.583 699.255H340.312C340.254 665.778 327.541 643.325 303.877 631.954C290.049 625.084 252.709 626.929 217.55 626.929L217.747 672.961C217.747 697.189 225.855 715.233 241.84 726.581C257.755 737.895 276.466 738.777 281.813 738.777L382.849 738.487C434.782 738.487 448.633 698.199 448.633 674.4C448.633 674.4 480.846 674.33 480.846 674.817V674.817Z" fill="url(#paint1_linear_208_22)"/>
<defs>
<linearGradient id="paint0_linear_208_22" x1="262.998" y1="797" x2="273.998" y2="26.5" gradientUnits="userSpaceOnUse">
<stop stop-color="#DEBA79" stop-opacity="0"/>
<stop offset="0.100526" stop-color="#EDC373" stop-opacity="0"/>
<stop offset="0.238271" stop-color="#F7C96F" stop-opacity="0"/>
<stop offset="0.434213" stop-color="#FFCE6C"/>
<stop offset="0.63" stop-color="#FFCE6D" stop-opacity="0.99"/>
<stop offset="0.722448" stop-color="#FFD072" stop-opacity="0.96"/>
<stop offset="0.822115" stop-color="#FFEDC9" stop-opacity="0.12"/>
<stop offset="0.882092" stop-color="white" stop-opacity="0"/>
</linearGradient>
<linearGradient id="paint1_linear_208_22" x1="281.5" y1="586" x2="459.5" y2="682" gradientUnits="userSpaceOnUse">
<stop stop-color="#E95441"/>
<stop offset="0.546961" stop-color="#FFCE6C" stop-opacity="0.3"/>
<stop offset="0.810245" stop-color="#FFCE6C" stop-opacity="0.08"/>
<stop offset="1" stop-color="#FFCE6C" stop-opacity="0"/>
</linearGradient>
</defs>
</svg>
