<svg width="402" height="471" viewBox="0 0 402 471" fill="none" xmlns="http://www.w3.org/2000/svg">
<path d="M398.793 201.775L401.076 0.289097L370.334 0.193623L368.041 202.379C367.529 240.633 340.723 262.219 294.506 261.6L196.866 260.291C169.041 259.918 144.981 268.363 127.296 284.7C109.475 301.16 99.8599 324.05 99.5005 350.902C99.0076 387.726 91.4961 413.897 77.7904 426.566C62.9751 440.486 35.6849 440.302 0.412935 439.83L0.000624578 470.632C37.3333 471.132 74.6266 473.857 99.7165 447.913C122.138 425.817 129.555 402.427 130.235 351.63C130.734 314.307 156.898 290.535 196.885 291.071L292.972 292.358C357.487 293.223 398.033 258.517 398.793 201.775Z" fill="url(#paint0_linear_139_771)"/>
<defs>
<linearGradient id="paint0_linear_139_771" x1="71.4129" y1="399.259" x2="401.813" y2="61.841" gradientUnits="userSpaceOnUse">
<stop stop-color="#FFCE6C"/>
<stop offset="1" stop-color="#F7F6F4"/>
</linearGradient>
</defs>
</svg>
