<svg width="321" height="256" viewBox="0 0 321 256" fill="none" xmlns="http://www.w3.org/2000/svg">
<path d="M62.6097 255.701H125.767C125.767 242.23 114.852 231.314 101.4 231.314H68.9445C47.6042 231.314 30.2992 213.994 30.2992 192.635V150.868C30.2992 129.5 47.6133 112.172 68.9718 112.191L259.063 112.3C293.227 112.327 320.939 84.6106 320.939 50.417L320.939 29.7093C320.939 13.3903 307.724 0.164062 291.418 0.164062C284.62 9.10588 276.04 12.9355 266.07 12.7536L265.788 21.6863C274.45 21.9683 283.411 19.6396 291.418 13.8087L291.418 43.9403C291.418 65.2987 274.114 82.6182 252.773 82.6182H62.6097C28.4633 82.6182 0.778992 110.325 0.778992 144.5V193.818C0.778992 227.993 28.4633 255.701 62.6097 255.701Z" fill="url(#paint0_linear_139_774)"/>
<defs>
<linearGradient id="paint0_linear_139_774" x1="267.739" y1="3.46835" x2="-200.215" y2="355.79" gradientUnits="userSpaceOnUse">
<stop stop-color="#FFCE6C"/>
<stop offset="0.371464" stop-color="#E95441"/>
</linearGradient>
</defs>
</svg>
