<svg width="321" height="265" viewBox="0 0 321 265" fill="none" xmlns="http://www.w3.org/2000/svg">
<path d="M258.752 264.701H195.594C195.594 251.229 206.51 240.313 219.961 240.313H252.417C273.757 240.313 291.062 222.993 291.062 201.635V150.704C291.062 129.336 273.748 112.008 252.39 112.027L62.2989 112.136C28.1343 112.163 0.422729 84.4465 0.422729 50.253L0.4228 29.5453C0.4228 13.2262 13.6378 0 29.943 0C36.7414 8.94182 45.3212 12.7714 55.2915 12.5895L55.5733 21.5222C46.9117 21.8042 37.9502 19.4755 29.943 13.6447L29.943 43.7762C29.943 65.1347 47.2479 82.4541 68.5883 82.4541H258.752C292.898 82.4541 320.582 110.161 320.582 144.336V202.818C320.582 236.993 292.898 264.701 258.752 264.701Z" fill="url(#paint0_linear_139_776)"/>
<defs>
<linearGradient id="paint0_linear_139_776" x1="199.998" y1="11.7788" x2="521.583" y2="364.905" gradientUnits="userSpaceOnUse">
<stop stop-color="#FFCE6C"/>
<stop offset="0.251208" stop-color="#E95441"/>
<stop offset="1" stop-color="#E95441"/>
</linearGradient>
</defs>
</svg>
