<svg width="311" height="219" viewBox="0 0 311 219" fill="none" xmlns="http://www.w3.org/2000/svg">
<path d="M248.284 0.998108H185.127C185.127 14.47 196.042 25.3859 209.494 25.3859H241.95C263.29 25.3859 280.595 42.7055 280.595 64.064L280.595 67.7502C280.595 89.1177 263.281 106.446 241.922 106.428L62.2895 106.318C28.1249 106.291 0.41333 134.008 0.41333 168.201L0.4134 188.909C0.4134 205.228 13.6284 218.454 29.9336 218.454C36.732 209.512 45.3118 205.683 55.2821 205.865L55.5639 196.932C46.9023 196.65 37.9408 198.979 29.9336 204.809L29.9336 174.678C29.9336 153.319 47.2385 136 68.5789 136H248.284C282.431 136 310.115 108.293 310.115 74.1177L310.115 62.8815C310.115 28.7061 282.431 0.998108 248.284 0.998108Z" fill="url(#paint0_linear_139_775)"/>
<defs>
<linearGradient id="paint0_linear_139_775" x1="199.989" y1="253.922" x2="521.574" y2="-99.2034" gradientUnits="userSpaceOnUse">
<stop stop-color="#5167B7"/>
<stop offset="0.333333" stop-color="#E95441"/>
<stop offset="1" stop-color="#E95441"/>
</linearGradient>
</defs>
</svg>
