<svg width="311" height="249" viewBox="0 0 311 249" fill="none" xmlns="http://www.w3.org/2000/svg">
<path d="M52.5334 29.6728L1.62885 29.6728L1.62886 0.137257L58.8976 0.137259C93.0552 0.137261 120.748 27.8359 120.748 62.0001L120.747 180.299C120.747 201.651 138.058 218.964 159.405 218.964L241.838 218.964C236.011 210.953 233.683 201.987 233.965 193.321L242.893 193.603C242.711 203.578 246.539 212.163 255.476 218.964C255.476 235.278 242.257 248.5 225.946 248.5L152.932 248.5C118.756 248.5 91.0539 220.774 91.0812 186.592L91.1907 68.3656C91.2089 46.9959 73.8899 29.6728 52.5334 29.6728Z" fill="url(#paint0_linear_209_6)"/>
<path d="M276.304 230.263C276.304 220.729 284.029 213 293.558 213C303.087 213 310.812 220.729 310.812 230.263C310.812 239.797 303.087 247.526 293.558 247.526C284.029 247.526 276.304 239.797 276.304 230.263Z" fill="#6BD1C5"/>
<defs>
<linearGradient id="paint0_linear_209_6" x1="79.0229" y1="234.5" x2="80.0235" y2="-267" gradientUnits="userSpaceOnUse">
<stop stop-color="#6BD1C5"/>
<stop offset="0.687057" stop-color="#6BD1C5"/>
<stop offset="0.796875" stop-color="#5167B7"/>
</linearGradient>
</defs>
</svg>
