<svg width="544" height="310" viewBox="0 0 544 310" fill="none" xmlns="http://www.w3.org/2000/svg">
<path d="M451 56L451.028 56.4992L451 56ZM542.5 144L542.997 144.05L542.5 144ZM2.03122 309.674C2.12726 309.933 2.415 310.065 2.6739 309.969L6.89295 308.404C7.15185 308.308 7.28388 308.02 7.18783 307.761C7.09179 307.502 6.80405 307.37 6.54514 307.466L2.79488 308.857L1.40365 305.107C1.30761 304.848 1.01987 304.716 0.760966 304.812C0.502064 304.908 0.370042 305.196 0.466086 305.455L2.03122 309.674ZM82.0118 0.892752C77.3294 22.2146 76.5217 54.9787 89.3429 83.9896C102.181 113.039 128.665 138.274 178.438 144.496L178.562 143.504C129.136 137.326 102.953 112.311 90.2575 83.5854C77.5454 54.8213 78.3377 22.2854 82.9886 1.10725L82.0118 0.892752ZM178.438 144.496C240.599 152.266 286.216 131.453 327.558 108.123C348.243 96.4508 367.814 84.1757 387.897 74.4894C407.965 64.8102 428.492 57.7443 451.028 56.4992L450.972 55.5008C428.258 56.7557 407.597 63.8773 387.462 73.5887C367.342 83.2931 347.695 95.6117 327.067 107.252C285.785 130.547 240.401 151.234 178.562 143.504L178.438 144.496ZM451.028 56.4992C489.837 54.3551 513.422 67.4685 526.886 85.4343C540.371 103.429 543.761 126.369 542.003 143.95L542.997 144.05C544.773 126.293 541.36 103.081 527.686 84.8346C513.99 66.5589 490.059 53.3413 450.972 55.5008L451.028 56.4992ZM542.003 143.95C536.546 198.513 463.479 254.963 352.165 216.028L351.835 216.972C463.521 256.037 537.454 199.487 542.997 144.05L542.003 143.95ZM352.165 216.028C324.311 206.285 311.146 195.656 306.917 186.294C304.812 181.637 304.912 177.282 306.521 173.451C308.134 169.608 311.284 166.257 315.332 163.671C323.438 158.493 335.018 156.464 344.602 159.6C349.385 161.165 353.664 164.012 356.781 168.392C359.899 172.771 361.876 178.715 362 186.508L363 186.492C362.874 178.535 360.851 172.385 357.596 167.812C354.34 163.238 349.873 160.273 344.913 158.65C335.013 155.411 323.124 157.507 314.793 162.829C310.623 165.493 307.311 168.986 305.599 173.064C303.881 177.156 303.789 181.801 306.005 186.706C310.416 196.469 323.939 207.215 351.835 216.972L352.165 216.028ZM362 186.508C362.498 217.871 348.679 251.845 322.933 272.989C297.215 294.109 259.541 302.475 212.194 282.539L211.806 283.461C259.459 303.525 297.535 295.141 323.567 273.761C349.571 252.405 363.502 218.129 363 186.492L362 186.508ZM212.194 282.539C164.7 262.542 121.982 247.872 86.236 248.875C68.3468 249.377 52.1866 253.804 38.0461 263.462C23.9076 273.118 11.824 287.979 2.04555 309.291L2.95445 309.709C12.676 288.521 24.6549 273.819 38.6101 264.288C52.5634 254.758 68.5282 250.373 86.264 249.875C121.768 248.878 164.3 263.458 211.806 283.461L212.194 282.539Z" fill="#FFCE6C"/>
</svg>
