<svg width="230" height="96" viewBox="0 0 230 96" fill="none" xmlns="http://www.w3.org/2000/svg">
<path d="M81 65.9998L80.673 65.6215L81 65.9998ZM162.5 3.5L162.611 3.9875L162.5 3.5ZM227 28.5001L226.56 28.7371L227 28.5001ZM194 65.9998L193.902 66.4901L194 65.9998ZM80.5136 95.1156C80.5776 95.3842 80.8472 95.5502 81.1158 95.4862L85.4934 94.4439C85.7621 94.3799 85.928 94.1103 85.864 93.8417C85.8001 93.5731 85.5304 93.4071 85.2618 93.4711L81.3706 94.3976L80.4441 90.5064C80.3801 90.2377 80.1105 90.0718 79.8419 90.1358C79.5733 90.1997 79.4073 90.4693 79.4713 90.738L80.5136 95.1156ZM0 74.0003C0 79.3897 3.37428 83.1922 8.73597 85.4455C14.0809 87.6917 21.4679 88.4393 29.7292 87.7482C46.2576 86.3655 66.4867 79.206 81.327 66.3781L80.673 65.6215C66.0133 78.2934 45.9924 85.3842 29.6458 86.7517C21.4696 87.4357 14.2628 86.6835 9.1234 84.5236C4.00072 82.3708 1 78.8609 1 74.0003H0ZM81.327 66.3781C91.1167 57.9158 99.7319 50.0902 107.488 43.0368C115.247 35.9813 122.141 29.7027 128.5 24.325C141.226 13.5611 151.737 6.46516 162.611 3.9875L162.389 3.0125C151.263 5.5477 140.593 12.7863 127.854 23.5615C121.479 28.9533 114.57 35.2453 106.815 42.2969C99.0589 49.3505 90.4521 57.1685 80.673 65.6215L81.327 66.3781ZM162.611 3.9875C178.785 0.302222 191.971 1.30811 202.501 5.8078C213.028 10.3064 220.95 18.3183 226.56 28.7371L227.44 28.263C221.743 17.6818 213.665 9.49102 202.894 4.88824C192.125 0.286553 178.715 -0.707591 162.389 3.0125L162.611 3.9875ZM194.098 65.5095C144.061 55.5021 100.752 61.9482 80.5742 94.7377L81.4258 95.2618C101.248 63.0514 143.939 56.4975 193.902 66.4901L194.098 65.5095ZM226.56 28.7371C229.969 35.0685 229.99 45.9079 225.068 54.3481C222.616 58.553 218.945 62.1485 213.868 64.2924C208.79 66.4367 202.27 67.1439 194.098 65.5095L193.902 66.4901C202.23 68.1557 208.96 67.4504 214.257 65.2136C219.555 62.9763 223.384 59.2219 225.932 54.8518C231.01 46.1423 231.031 34.9318 227.44 28.263L226.56 28.7371Z" fill="#FFCE6C"/>
</svg>
