<svg width="351" height="265" viewBox="0 0 351 265" fill="none" xmlns="http://www.w3.org/2000/svg">
<path d="M288.55 0.000325066L225.393 0.000314018C225.393 13.4722 236.282 28.7722 249.733 28.7722L282.188 28.7722C303.529 28.7722 320.861 41.7077 320.861 63.0662L320.861 113.997C320.861 135.365 303.547 152.693 282.188 152.675L62.2755 152.566C28.1109 152.538 0.399307 180.255 0.399301 214.448L0.399367 235.156C0.399365 251.475 13.6144 264.701 29.9196 264.701C36.718 255.759 45.2977 251.93 55.2681 252.112L55.5498 243.179C46.8883 242.897 37.9268 245.226 29.9196 251.056L29.9196 220.925C29.9196 199.567 47.2245 182.247 68.5649 182.247L288.55 182.247C322.697 182.247 350.381 154.54 350.381 120.365L350.381 61.8837C350.381 27.7083 322.697 0.00033104 288.55 0.000325066Z" fill="url(#paint0_linear_139_772)"/>
<defs>
<linearGradient id="paint0_linear_139_772" x1="12.9654" y1="276.689" x2="551.391" y2="-100.035" gradientUnits="userSpaceOnUse">
<stop offset="0.15625" stop-color="#6BD1C5"/>
<stop offset="0.550045" stop-color="#5167B7"/>
</linearGradient>
</defs>
</svg>
