<svg width="552" height="799" viewBox="0 0 552 799" fill="none" xmlns="http://www.w3.org/2000/svg">
<path d="M225.466 278.061L225.696 93.0966L256.485 93.6912L256.207 278.397C256.207 305.26 247.781 328.154 231.85 344.602C215.017 361.971 190.507 371.149 160.964 371.149L88.1613 371.149C57.2285 371.149 33.6586 396.38 33.6586 483C33.6586 507.811 49.2858 537.699 86.3534 537.699L260.502 537.833C285.53 537.833 310.468 543.629 327.463 559.396C345.666 576.285 353.482 602.426 353.492 629.5L355.3 701.558C355.3 713.806 359.163 728.863 364.924 739.019C372.276 751.976 386.99 767.427 415.402 767.427H417.376V798.088C415.459 798.069 413.504 798.069 411.51 798.069C374.855 798.069 354.035 778.648 343.03 762.353C329.361 742.136 324.501 717.69 324.501 701.558L322.751 629.798C322.751 587.426 290.16 568.456 257.866 568.456H85.97C60.0984 568.456 40.0032 557.046 24.4553 540.944C10.8149 526.817 2.43711 507.099 0.86507 485.414C-0.716557 463.615 7.67084 385.659 23.8705 368.224C40.6741 350.145 63.3729 340.181 87.7299 340.181L162.68 339.26C187.689 339.26 205.432 331.875 215.43 317.316C222.187 307.495 225.466 294.653 225.466 278.061Z" fill="url(#paint0_linear_210_7)"/>
<path d="M522.363 115.625C539.569 115.625 549.394 125.292 551.254 146.382H501.255C452.244 146.382 422.989 113.86 417.822 90.7178C401.651 30.4792 370.968 30.4792 348.566 30.4792H348.566C300.025 30.4792 256.484 63.1257 256.484 93.691L225.695 93.0964C225.695 68.4677 238.659 47.5026 254.044 30.4792C269.371 12.3626 314.077 0.575745 345.47 0.000305176C370.105 0.000305176 389.545 4.45033 404.709 13.5422C424.321 25.3003 437.204 44.6926 444.106 72.841C452.781 108.422 480.167 115.749 501.639 115.625H522.363Z" fill="url(#paint1_linear_210_7)"/>
<defs>
<linearGradient id="paint0_linear_210_7" x1="218.359" y1="798.088" x2="218.359" y2="93.0966" gradientUnits="userSpaceOnUse">
<stop stop-color="#5167B7"/>
<stop offset="0.345782" stop-color="#6BD1C5"/>
<stop offset="0.807215" stop-color="#6BD1C5"/>
<stop offset="0.875442" stop-color="#5167B7"/>
</linearGradient>
<linearGradient id="paint1_linear_210_7" x1="302.518" y1="47.5002" x2="481.928" y2="70.4767" gradientUnits="userSpaceOnUse">
<stop stop-color="#5167B7"/>
<stop offset="0.379533" stop-color="#FFCE6C"/>
</linearGradient>
</defs>
</svg>
