<svg width="147" height="123" viewBox="0 0 147 123" fill="none" xmlns="http://www.w3.org/2000/svg">
<path d="M9.50001 33.5013L9.91979 33.7729L9.50001 33.5013ZM28.8265 122.021C29.1026 122.021 29.326 121.796 29.3254 121.52L29.3156 117.02C29.315 116.744 29.0906 116.521 28.8145 116.521C28.5383 116.522 28.315 116.746 28.3156 117.022L28.3243 121.022L24.3243 121.031C24.0482 121.032 23.8248 121.256 23.8254 121.532C23.826 121.808 24.0503 122.032 24.3265 122.031L28.8265 122.021ZM146 3.00326C146.064 2.50728 146.063 2.50721 146.062 2.5071C146.061 2.50699 146.06 2.50682 146.058 2.5066C146.055 2.50616 146.05 2.50553 146.043 2.50469C146.03 2.503 146.01 2.50052 145.984 2.49726C145.931 2.49074 145.853 2.48113 145.75 2.46872C145.544 2.44388 145.238 2.4078 144.838 2.36266C144.039 2.27238 142.863 2.14587 141.358 2.00065C138.347 1.71023 134.015 1.34498 128.728 1.04522C118.155 0.445772 103.755 0.107878 88.4558 1.15568C73.1597 2.20325 56.9433 4.63718 42.7457 9.59141C28.5528 14.544 16.3246 22.034 9.08022 33.2297L9.91979 33.7729C16.9952 22.8383 28.9894 15.4508 43.0752 10.5356C57.1564 5.62198 73.2751 3.1977 88.5241 2.15335C103.77 1.10923 118.125 1.44571 128.671 2.04361C133.944 2.34253 138.262 2.7067 141.262 2.99603C142.761 3.14069 143.931 3.26664 144.726 3.35635C145.123 3.4012 145.426 3.43699 145.63 3.46154C145.732 3.47381 145.809 3.48327 145.86 3.48965C145.886 3.49283 145.905 3.49525 145.918 3.49686C145.925 3.49766 145.929 3.49827 145.933 3.49867C145.934 3.49886 145.935 3.49901 145.936 3.49911C145.937 3.4992 145.937 3.49924 146 3.00326ZM9.08022 33.2297C-2.03123 50.4017 -0.873491 68.8974 4.89119 84.9037C10.6527 100.901 21.0316 114.467 28.4726 121.876L29.1782 121.167C21.8163 113.837 11.5325 100.393 5.83203 84.5648C0.13475 68.7457 -0.968764 50.6005 9.91979 33.7729L9.08022 33.2297Z" fill="#FFCE6C"/>
</svg>
